<?xml version="1.0" encoding="UTF-8" standalone="no"?>
<!DOCTYPE svg PUBLIC "-//W3C//DTD SVG 1.1//EN"
 "http://www.w3.org/Graphics/SVG/1.1/DTD/svg11.dtd">
<!-- Generated by graphviz version 2.43.0 (0)
 -->
<!-- Title: %3 Pages: 1 -->
<svg width="578pt" height="222pt"
 viewBox="0.00 0.00 578.00 222.00" xmlns="http://www.w3.org/2000/svg" xmlns:xlink="http://www.w3.org/1999/xlink">
<g id="graph0" class="graph" transform="scale(1 1) rotate(0) translate(4 218)">
<title>%3</title>
<polygon fill="white" stroke="transparent" points="-4,4 -4,-218 574,-218 574,4 -4,4"/>
<!-- /home/lukas/git/benchmark_harness/auto_tuner_benchmarks/NPB/EP/EP_orig\n13.919s -->
<g id="node1" class="node">
<title>/home/lukas/git/benchmark_harness/auto_tuner_benchmarks/NPB/EP/EP_orig\n13.919s</title>
<polygon fill="green" stroke="black" points="570,-214 0,-214 0,-176 570,-176 570,-214"/>
<text text-anchor="middle" x="285" y="-198.8" font-family="Times,serif" font-size="14.00">/home/lukas/git/benchmark_harness/auto_tuner_benchmarks/NPB/EP/EP_orig</text>
<text text-anchor="middle" x="285" y="-183.8" font-family="Times,serif" font-size="14.00">13.919s</text>
</g>
<!-- 1@175 &#45; HotspotNodeType.LOOP &#160;0.017s -->
<g id="node2" class="node">
<title>1@175 &#45; HotspotNodeType.LOOP &#160;0.017s</title>
<ellipse fill="white" stroke="black" cx="285" cy="-122" rx="202.56" ry="18"/>
<text text-anchor="middle" x="285" y="-118.3" font-family="Times,serif" font-size="14.00">1@175 &#45; HotspotNodeType.LOOP &#160;0.017s</text>
</g>
<!-- /home/lukas/git/benchmark_harness/auto_tuner_benchmarks/NPB/EP/EP_orig\n13.919s&#45;&gt;1@175 &#45; HotspotNodeType.LOOP &#160;0.017s -->
<g id="edge1" class="edge">
<title>/home/lukas/git/benchmark_harness/auto_tuner_benchmarks/NPB/EP/EP_orig\n13.919s&#45;&gt;1@175 &#45; HotspotNodeType.LOOP &#160;0.017s</title>
<path fill="none" stroke="black" d="M285,-175.72C285,-167.97 285,-158.79 285,-150.27"/>
<polygon fill="black" stroke="black" points="288.5,-150 285,-140 281.5,-150 288.5,-150"/>
</g>
<!-- step 0\n[]\n/home/lukas/git/benchmark_harness/auto_tuner_benchmarks/NPB/EP/EP_orig\n13.919s -->
<g id="node3" class="node">
<title>step 0\n[]\n/home/lukas/git/benchmark_harness/auto_tuner_benchmarks/NPB/EP/EP_orig\n13.919s</title>
<polygon fill="green" stroke="black" points="570,-68 0,-68 0,0 570,0 570,-68"/>
<text text-anchor="middle" x="285" y="-52.8" font-family="Times,serif" font-size="14.00">step 0</text>
<text text-anchor="middle" x="285" y="-37.8" font-family="Times,serif" font-size="14.00">[]</text>
<text text-anchor="middle" x="285" y="-22.8" font-family="Times,serif" font-size="14.00">/home/lukas/git/benchmark_harness/auto_tuner_benchmarks/NPB/EP/EP_orig</text>
<text text-anchor="middle" x="285" y="-7.8" font-family="Times,serif" font-size="14.00">13.919s</text>
</g>
<!-- 1@175 &#45; HotspotNodeType.LOOP &#160;0.017s&#45;&gt;step 0\n[]\n/home/lukas/git/benchmark_harness/auto_tuner_benchmarks/NPB/EP/EP_orig\n13.919s -->
<g id="edge2" class="edge">
<title>1@175 &#45; HotspotNodeType.LOOP &#160;0.017s&#45;&gt;step 0\n[]\n/home/lukas/git/benchmark_harness/auto_tuner_benchmarks/NPB/EP/EP_orig\n13.919s</title>
<path fill="none" stroke="black" d="M285,-103.6C285,-96.18 285,-87.16 285,-78.14"/>
<polygon fill="black" stroke="black" points="288.5,-78.03 285,-68.03 281.5,-78.03 288.5,-78.03"/>
</g>
</g>
</svg>
