<?xml version="1.0" encoding="UTF-8" standalone="no"?>
<!DOCTYPE svg PUBLIC "-//W3C//DTD SVG 1.1//EN"
 "http://www.w3.org/Graphics/SVG/1.1/DTD/svg11.dtd">
<!-- Generated by graphviz version 2.43.0 (0)
 -->
<!-- Title: %3 Pages: 1 -->
<svg width="1250pt" height="398pt"
 viewBox="0.00 0.00 1250.00 398.00" xmlns="http://www.w3.org/2000/svg" xmlns:xlink="http://www.w3.org/1999/xlink">
<g id="graph0" class="graph" transform="scale(1 1) rotate(0) translate(4 394)">
<title>%3</title>
<polygon fill="white" stroke="transparent" points="-4,4 -4,-394 1246,-394 1246,4 -4,4"/>
<!-- /home/lukas/git/benchmark_harness/auto_tuner_benchmarks/NPB/IS/IS_orig\n0.914s -->
<g id="node1" class="node">
<title>/home/lukas/git/benchmark_harness/auto_tuner_benchmarks/NPB/IS/IS_orig\n0.914s</title>
<polygon fill="green" stroke="black" points="927,-390 367,-390 367,-352 927,-352 927,-390"/>
<text text-anchor="middle" x="647" y="-374.8" font-family="Times,serif" font-size="14.00">/home/lukas/git/benchmark_harness/auto_tuner_benchmarks/NPB/IS/IS_orig</text>
<text text-anchor="middle" x="647" y="-359.8" font-family="Times,serif" font-size="14.00">0.914s</text>
</g>
<!-- 1@437 &#45; HotspotNodeType.LOOP &#160;0.022s -->
<g id="node2" class="node">
<title>1@437 &#45; HotspotNodeType.LOOP &#160;0.022s</title>
<ellipse fill="white" stroke="black" cx="647" cy="-298" rx="202.56" ry="18"/>
<text text-anchor="middle" x="647" y="-294.3" font-family="Times,serif" font-size="14.00">1@437 &#45; HotspotNodeType.LOOP &#160;0.022s</text>
</g>
<!-- /home/lukas/git/benchmark_harness/auto_tuner_benchmarks/NPB/IS/IS_orig\n0.914s&#45;&gt;1@437 &#45; HotspotNodeType.LOOP &#160;0.022s -->
<g id="edge1" class="edge">
<title>/home/lukas/git/benchmark_harness/auto_tuner_benchmarks/NPB/IS/IS_orig\n0.914s&#45;&gt;1@437 &#45; HotspotNodeType.LOOP &#160;0.022s</title>
<path fill="none" stroke="black" d="M647,-351.72C647,-343.97 647,-334.79 647,-326.27"/>
<polygon fill="black" stroke="black" points="650.5,-326 647,-316 643.5,-326 650.5,-326"/>
</g>
<!-- step 0\n[8]\n/home/lukas/git/benchmark_harness/auto_tuner_benchmarks/NPB/IS/IS_orig_dpautotune_1\n0.498s -->
<g id="node3" class="node">
<title>step 0\n[8]\n/home/lukas/git/benchmark_harness/auto_tuner_benchmarks/NPB/IS/IS_orig_dpautotune_1\n0.498s</title>
<polygon fill="red" stroke="black" points="664,-244 0,-244 0,-176 664,-176 664,-244"/>
<text text-anchor="middle" x="332" y="-228.8" font-family="Times,serif" font-size="14.00">step 0</text>
<text text-anchor="middle" x="332" y="-213.8" font-family="Times,serif" font-size="14.00">[8]</text>
<text text-anchor="middle" x="332" y="-198.8" font-family="Times,serif" font-size="14.00">/home/lukas/git/benchmark_harness/auto_tuner_benchmarks/NPB/IS/IS_orig_dpautotune_1</text>
<text text-anchor="middle" x="332" y="-183.8" font-family="Times,serif" font-size="14.00">0.498s</text>
</g>
<!-- 1@437 &#45; HotspotNodeType.LOOP &#160;0.022s&#45;&gt;step 0\n[8]\n/home/lukas/git/benchmark_harness/auto_tuner_benchmarks/NPB/IS/IS_orig_dpautotune_1\n0.498s -->
<g id="edge2" class="edge">
<title>1@437 &#45; HotspotNodeType.LOOP &#160;0.022s&#45;&gt;step 0\n[8]\n/home/lukas/git/benchmark_harness/auto_tuner_benchmarks/NPB/IS/IS_orig_dpautotune_1\n0.498s</title>
<path fill="none" stroke="black" d="M587.38,-280.72C552.14,-271.1 506.08,-258.53 462.78,-246.71"/>
<polygon fill="black" stroke="black" points="463.58,-243.3 453.02,-244.04 461.74,-250.05 463.58,-243.3"/>
</g>
<!-- step 0\n[]\n/home/lukas/git/benchmark_harness/auto_tuner_benchmarks/NPB/IS/IS_orig\n0.914s -->
<g id="node4" class="node">
<title>step 0\n[]\n/home/lukas/git/benchmark_harness/auto_tuner_benchmarks/NPB/IS/IS_orig\n0.914s</title>
<polygon fill="green" stroke="black" points="1242,-244 682,-244 682,-176 1242,-176 1242,-244"/>
<text text-anchor="middle" x="962" y="-228.8" font-family="Times,serif" font-size="14.00">step 0</text>
<text text-anchor="middle" x="962" y="-213.8" font-family="Times,serif" font-size="14.00">[]</text>
<text text-anchor="middle" x="962" y="-198.8" font-family="Times,serif" font-size="14.00">/home/lukas/git/benchmark_harness/auto_tuner_benchmarks/NPB/IS/IS_orig</text>
<text text-anchor="middle" x="962" y="-183.8" font-family="Times,serif" font-size="14.00">0.914s</text>
</g>
<!-- 1@437 &#45; HotspotNodeType.LOOP &#160;0.022s&#45;&gt;step 0\n[]\n/home/lukas/git/benchmark_harness/auto_tuner_benchmarks/NPB/IS/IS_orig\n0.914s -->
<g id="edge3" class="edge">
<title>1@437 &#45; HotspotNodeType.LOOP &#160;0.022s&#45;&gt;step 0\n[]\n/home/lukas/git/benchmark_harness/auto_tuner_benchmarks/NPB/IS/IS_orig\n0.914s</title>
<path fill="none" stroke="black" d="M706.62,-280.72C741.86,-271.1 787.92,-258.53 831.22,-246.71"/>
<polygon fill="black" stroke="black" points="832.26,-250.05 840.98,-244.04 830.42,-243.3 832.26,-250.05"/>
</g>
<!-- 1@309 &#45; HotspotNodeType.LOOP &#160;0.007s -->
<g id="node5" class="node">
<title>1@309 &#45; HotspotNodeType.LOOP &#160;0.007s</title>
<ellipse fill="white" stroke="black" cx="962" cy="-122" rx="202.56" ry="18"/>
<text text-anchor="middle" x="962" y="-118.3" font-family="Times,serif" font-size="14.00">1@309 &#45; HotspotNodeType.LOOP &#160;0.007s</text>
</g>
<!-- step 0\n[]\n/home/lukas/git/benchmark_harness/auto_tuner_benchmarks/NPB/IS/IS_orig\n0.914s&#45;&gt;1@309 &#45; HotspotNodeType.LOOP &#160;0.007s -->
<g id="edge4" class="edge">
<title>step 0\n[]\n/home/lukas/git/benchmark_harness/auto_tuner_benchmarks/NPB/IS/IS_orig\n0.914s&#45;&gt;1@309 &#45; HotspotNodeType.LOOP &#160;0.007s</title>
<path fill="none" stroke="black" d="M962,-176C962,-167.56 962,-158.59 962,-150.47"/>
<polygon fill="black" stroke="black" points="965.5,-150.4 962,-140.4 958.5,-150.4 965.5,-150.4"/>
</g>
<!-- step 1\n[]\n/home/lukas/git/benchmark_harness/auto_tuner_benchmarks/NPB/IS/IS_orig\n0.914s -->
<g id="node6" class="node">
<title>step 1\n[]\n/home/lukas/git/benchmark_harness/auto_tuner_benchmarks/NPB/IS/IS_orig\n0.914s</title>
<polygon fill="green" stroke="black" points="1242,-68 682,-68 682,0 1242,0 1242,-68"/>
<text text-anchor="middle" x="962" y="-52.8" font-family="Times,serif" font-size="14.00">step 1</text>
<text text-anchor="middle" x="962" y="-37.8" font-family="Times,serif" font-size="14.00">[]</text>
<text text-anchor="middle" x="962" y="-22.8" font-family="Times,serif" font-size="14.00">/home/lukas/git/benchmark_harness/auto_tuner_benchmarks/NPB/IS/IS_orig</text>
<text text-anchor="middle" x="962" y="-7.8" font-family="Times,serif" font-size="14.00">0.914s</text>
</g>
<!-- 1@309 &#45; HotspotNodeType.LOOP &#160;0.007s&#45;&gt;step 1\n[]\n/home/lukas/git/benchmark_harness/auto_tuner_benchmarks/NPB/IS/IS_orig\n0.914s -->
<g id="edge5" class="edge">
<title>1@309 &#45; HotspotNodeType.LOOP &#160;0.007s&#45;&gt;step 1\n[]\n/home/lukas/git/benchmark_harness/auto_tuner_benchmarks/NPB/IS/IS_orig\n0.914s</title>
<path fill="none" stroke="black" d="M962,-103.6C962,-96.18 962,-87.16 962,-78.14"/>
<polygon fill="black" stroke="black" points="965.5,-78.03 962,-68.03 958.5,-78.03 965.5,-78.03"/>
</g>
</g>
</svg>
