<?xml version="1.0" encoding="UTF-8" standalone="no"?>
<!DOCTYPE svg PUBLIC "-//W3C//DTD SVG 1.1//EN"
 "http://www.w3.org/Graphics/SVG/1.1/DTD/svg11.dtd">
<!-- Generated by graphviz version 2.43.0 (0)
 -->
<!-- Title: %3 Pages: 1 -->
<svg width="1522pt" height="3390pt"
 viewBox="0.00 0.00 1521.50 3390.00" xmlns="http://www.w3.org/2000/svg" xmlns:xlink="http://www.w3.org/1999/xlink">
<g id="graph0" class="graph" transform="scale(1 1) rotate(0) translate(4 3386)">
<title>%3</title>
<polygon fill="white" stroke="transparent" points="-4,4 -4,-3386 1517.5,-3386 1517.5,4 -4,4"/>
<!-- /home/lukas/git/benchmark_harness/auto_tuner_benchmarks/NPB/IS/IS_orig_without_metadata\n14.797s -->
<g id="node1" class="node">
<title>/home/lukas/git/benchmark_harness/auto_tuner_benchmarks/NPB/IS/IS_orig_without_metadata\n14.797s</title>
<polygon fill="green" stroke="black" points="1130.5,-3382 435.5,-3382 435.5,-3344 1130.5,-3344 1130.5,-3382"/>
<text text-anchor="middle" x="783" y="-3366.8" font-family="Times,serif" font-size="14.00">/home/lukas/git/benchmark_harness/auto_tuner_benchmarks/NPB/IS/IS_orig_without_metadata</text>
<text text-anchor="middle" x="783" y="-3351.8" font-family="Times,serif" font-size="14.00">14.797s</text>
</g>
<!-- 1@437 &#45; HotspotNodeType.LOOP &#160;1.389s -->
<g id="node2" class="node">
<title>1@437 &#45; HotspotNodeType.LOOP &#160;1.389s</title>
<ellipse fill="white" stroke="black" cx="783" cy="-3290" rx="202.56" ry="18"/>
<text text-anchor="middle" x="783" y="-3286.3" font-family="Times,serif" font-size="14.00">1@437 &#45; HotspotNodeType.LOOP &#160;1.389s</text>
</g>
<!-- /home/lukas/git/benchmark_harness/auto_tuner_benchmarks/NPB/IS/IS_orig_without_metadata\n14.797s&#45;&gt;1@437 &#45; HotspotNodeType.LOOP &#160;1.389s -->
<g id="edge1" class="edge">
<title>/home/lukas/git/benchmark_harness/auto_tuner_benchmarks/NPB/IS/IS_orig_without_metadata\n14.797s&#45;&gt;1@437 &#45; HotspotNodeType.LOOP &#160;1.389s</title>
<path fill="none" stroke="black" d="M783,-3343.72C783,-3335.97 783,-3326.79 783,-3318.27"/>
<polygon fill="black" stroke="black" points="786.5,-3318 783,-3308 779.5,-3318 786.5,-3318"/>
</g>
<!-- step 0\n[]\n/home/lukas/git/benchmark_harness/auto_tuner_benchmarks/NPB/IS/IS_orig_without_metadata\n14.797s -->
<g id="node3" class="node">
<title>step 0\n[]\n/home/lukas/git/benchmark_harness/auto_tuner_benchmarks/NPB/IS/IS_orig_without_metadata\n14.797s</title>
<polygon fill="green" stroke="black" points="1130.5,-3236 435.5,-3236 435.5,-3168 1130.5,-3168 1130.5,-3236"/>
<text text-anchor="middle" x="783" y="-3220.8" font-family="Times,serif" font-size="14.00">step 0</text>
<text text-anchor="middle" x="783" y="-3205.8" font-family="Times,serif" font-size="14.00">[]</text>
<text text-anchor="middle" x="783" y="-3190.8" font-family="Times,serif" font-size="14.00">/home/lukas/git/benchmark_harness/auto_tuner_benchmarks/NPB/IS/IS_orig_without_metadata</text>
<text text-anchor="middle" x="783" y="-3175.8" font-family="Times,serif" font-size="14.00">14.797s</text>
</g>
<!-- 1@437 &#45; HotspotNodeType.LOOP &#160;1.389s&#45;&gt;step 0\n[]\n/home/lukas/git/benchmark_harness/auto_tuner_benchmarks/NPB/IS/IS_orig_without_metadata\n14.797s -->
<g id="edge2" class="edge">
<title>1@437 &#45; HotspotNodeType.LOOP &#160;1.389s&#45;&gt;step 0\n[]\n/home/lukas/git/benchmark_harness/auto_tuner_benchmarks/NPB/IS/IS_orig_without_metadata\n14.797s</title>
<path fill="none" stroke="black" d="M783,-3271.6C783,-3264.18 783,-3255.16 783,-3246.14"/>
<polygon fill="black" stroke="black" points="786.5,-3246.03 783,-3236.03 779.5,-3246.03 786.5,-3246.03"/>
</g>
<!-- 1@309 &#45; HotspotNodeType.LOOP &#160;0.488s -->
<g id="node4" class="node">
<title>1@309 &#45; HotspotNodeType.LOOP &#160;0.488s</title>
<ellipse fill="white" stroke="black" cx="783" cy="-3114" rx="202.56" ry="18"/>
<text text-anchor="middle" x="783" y="-3110.3" font-family="Times,serif" font-size="14.00">1@309 &#45; HotspotNodeType.LOOP &#160;0.488s</text>
</g>
<!-- step 0\n[]\n/home/lukas/git/benchmark_harness/auto_tuner_benchmarks/NPB/IS/IS_orig_without_metadata\n14.797s&#45;&gt;1@309 &#45; HotspotNodeType.LOOP &#160;0.488s -->
<g id="edge3" class="edge">
<title>step 0\n[]\n/home/lukas/git/benchmark_harness/auto_tuner_benchmarks/NPB/IS/IS_orig_without_metadata\n14.797s&#45;&gt;1@309 &#45; HotspotNodeType.LOOP &#160;0.488s</title>
<path fill="none" stroke="black" d="M783,-3168C783,-3159.56 783,-3150.59 783,-3142.47"/>
<polygon fill="black" stroke="black" points="786.5,-3142.4 783,-3132.4 779.5,-3142.4 786.5,-3142.4"/>
</g>
<!-- step 1\n[]\n/home/lukas/git/benchmark_harness/auto_tuner_benchmarks/NPB/IS/IS_orig_without_metadata\n14.797s -->
<g id="node5" class="node">
<title>step 1\n[]\n/home/lukas/git/benchmark_harness/auto_tuner_benchmarks/NPB/IS/IS_orig_without_metadata\n14.797s</title>
<polygon fill="green" stroke="black" points="1130.5,-3060 435.5,-3060 435.5,-2992 1130.5,-2992 1130.5,-3060"/>
<text text-anchor="middle" x="783" y="-3044.8" font-family="Times,serif" font-size="14.00">step 1</text>
<text text-anchor="middle" x="783" y="-3029.8" font-family="Times,serif" font-size="14.00">[]</text>
<text text-anchor="middle" x="783" y="-3014.8" font-family="Times,serif" font-size="14.00">/home/lukas/git/benchmark_harness/auto_tuner_benchmarks/NPB/IS/IS_orig_without_metadata</text>
<text text-anchor="middle" x="783" y="-2999.8" font-family="Times,serif" font-size="14.00">14.797s</text>
</g>
<!-- 1@309 &#45; HotspotNodeType.LOOP &#160;0.488s&#45;&gt;step 1\n[]\n/home/lukas/git/benchmark_harness/auto_tuner_benchmarks/NPB/IS/IS_orig_without_metadata\n14.797s -->
<g id="edge4" class="edge">
<title>1@309 &#45; HotspotNodeType.LOOP &#160;0.488s&#45;&gt;step 1\n[]\n/home/lukas/git/benchmark_harness/auto_tuner_benchmarks/NPB/IS/IS_orig_without_metadata\n14.797s</title>
<path fill="none" stroke="black" d="M783,-3095.6C783,-3088.18 783,-3079.16 783,-3070.14"/>
<polygon fill="black" stroke="black" points="786.5,-3070.03 783,-3060.03 779.5,-3070.03 786.5,-3070.03"/>
</g>
<!-- 1@602 &#45; HotspotNodeType.LOOP &#160;0.257s -->
<g id="node6" class="node">
<title>1@602 &#45; HotspotNodeType.LOOP &#160;0.257s</title>
<ellipse fill="white" stroke="black" cx="783" cy="-2938" rx="202.56" ry="18"/>
<text text-anchor="middle" x="783" y="-2934.3" font-family="Times,serif" font-size="14.00">1@602 &#45; HotspotNodeType.LOOP &#160;0.257s</text>
</g>
<!-- step 1\n[]\n/home/lukas/git/benchmark_harness/auto_tuner_benchmarks/NPB/IS/IS_orig_without_metadata\n14.797s&#45;&gt;1@602 &#45; HotspotNodeType.LOOP &#160;0.257s -->
<g id="edge5" class="edge">
<title>step 1\n[]\n/home/lukas/git/benchmark_harness/auto_tuner_benchmarks/NPB/IS/IS_orig_without_metadata\n14.797s&#45;&gt;1@602 &#45; HotspotNodeType.LOOP &#160;0.257s</title>
<path fill="none" stroke="black" d="M783,-2992C783,-2983.56 783,-2974.59 783,-2966.47"/>
<polygon fill="black" stroke="black" points="786.5,-2966.4 783,-2956.4 779.5,-2966.4 786.5,-2966.4"/>
</g>
<!-- step 2\n[]\n/home/lukas/git/benchmark_harness/auto_tuner_benchmarks/NPB/IS/IS_orig_without_metadata\n14.797s -->
<g id="node7" class="node">
<title>step 2\n[]\n/home/lukas/git/benchmark_harness/auto_tuner_benchmarks/NPB/IS/IS_orig_without_metadata\n14.797s</title>
<polygon fill="green" stroke="black" points="1130.5,-2884 435.5,-2884 435.5,-2816 1130.5,-2816 1130.5,-2884"/>
<text text-anchor="middle" x="783" y="-2868.8" font-family="Times,serif" font-size="14.00">step 2</text>
<text text-anchor="middle" x="783" y="-2853.8" font-family="Times,serif" font-size="14.00">[]</text>
<text text-anchor="middle" x="783" y="-2838.8" font-family="Times,serif" font-size="14.00">/home/lukas/git/benchmark_harness/auto_tuner_benchmarks/NPB/IS/IS_orig_without_metadata</text>
<text text-anchor="middle" x="783" y="-2823.8" font-family="Times,serif" font-size="14.00">14.797s</text>
</g>
<!-- 1@602 &#45; HotspotNodeType.LOOP &#160;0.257s&#45;&gt;step 2\n[]\n/home/lukas/git/benchmark_harness/auto_tuner_benchmarks/NPB/IS/IS_orig_without_metadata\n14.797s -->
<g id="edge6" class="edge">
<title>1@602 &#45; HotspotNodeType.LOOP &#160;0.257s&#45;&gt;step 2\n[]\n/home/lukas/git/benchmark_harness/auto_tuner_benchmarks/NPB/IS/IS_orig_without_metadata\n14.797s</title>
<path fill="none" stroke="black" d="M783,-2919.6C783,-2912.18 783,-2903.16 783,-2894.14"/>
<polygon fill="black" stroke="black" points="786.5,-2894.03 783,-2884.03 779.5,-2894.03 786.5,-2894.03"/>
</g>
<!-- 1@618 &#45; HotspotNodeType.LOOP &#160;0.223s -->
<g id="node8" class="node">
<title>1@618 &#45; HotspotNodeType.LOOP &#160;0.223s</title>
<ellipse fill="white" stroke="black" cx="783" cy="-2762" rx="202.56" ry="18"/>
<text text-anchor="middle" x="783" y="-2758.3" font-family="Times,serif" font-size="14.00">1@618 &#45; HotspotNodeType.LOOP &#160;0.223s</text>
</g>
<!-- step 2\n[]\n/home/lukas/git/benchmark_harness/auto_tuner_benchmarks/NPB/IS/IS_orig_without_metadata\n14.797s&#45;&gt;1@618 &#45; HotspotNodeType.LOOP &#160;0.223s -->
<g id="edge7" class="edge">
<title>step 2\n[]\n/home/lukas/git/benchmark_harness/auto_tuner_benchmarks/NPB/IS/IS_orig_without_metadata\n14.797s&#45;&gt;1@618 &#45; HotspotNodeType.LOOP &#160;0.223s</title>
<path fill="none" stroke="black" d="M783,-2816C783,-2807.56 783,-2798.59 783,-2790.47"/>
<polygon fill="black" stroke="black" points="786.5,-2790.4 783,-2780.4 779.5,-2790.4 786.5,-2790.4"/>
</g>
<!-- step 3\n[]\n/home/lukas/git/benchmark_harness/auto_tuner_benchmarks/NPB/IS/IS_orig_without_metadata\n14.797s -->
<g id="node9" class="node">
<title>step 3\n[]\n/home/lukas/git/benchmark_harness/auto_tuner_benchmarks/NPB/IS/IS_orig_without_metadata\n14.797s</title>
<polygon fill="green" stroke="black" points="1130.5,-2708 435.5,-2708 435.5,-2640 1130.5,-2640 1130.5,-2708"/>
<text text-anchor="middle" x="783" y="-2692.8" font-family="Times,serif" font-size="14.00">step 3</text>
<text text-anchor="middle" x="783" y="-2677.8" font-family="Times,serif" font-size="14.00">[]</text>
<text text-anchor="middle" x="783" y="-2662.8" font-family="Times,serif" font-size="14.00">/home/lukas/git/benchmark_harness/auto_tuner_benchmarks/NPB/IS/IS_orig_without_metadata</text>
<text text-anchor="middle" x="783" y="-2647.8" font-family="Times,serif" font-size="14.00">14.797s</text>
</g>
<!-- 1@618 &#45; HotspotNodeType.LOOP &#160;0.223s&#45;&gt;step 3\n[]\n/home/lukas/git/benchmark_harness/auto_tuner_benchmarks/NPB/IS/IS_orig_without_metadata\n14.797s -->
<g id="edge8" class="edge">
<title>1@618 &#45; HotspotNodeType.LOOP &#160;0.223s&#45;&gt;step 3\n[]\n/home/lukas/git/benchmark_harness/auto_tuner_benchmarks/NPB/IS/IS_orig_without_metadata\n14.797s</title>
<path fill="none" stroke="black" d="M783,-2743.6C783,-2736.18 783,-2727.16 783,-2718.14"/>
<polygon fill="black" stroke="black" points="786.5,-2718.03 783,-2708.03 779.5,-2718.03 786.5,-2718.03"/>
</g>
<!-- 1@629 &#45; HotspotNodeType.LOOP &#160;0.206s -->
<g id="node10" class="node">
<title>1@629 &#45; HotspotNodeType.LOOP &#160;0.206s</title>
<ellipse fill="white" stroke="black" cx="783" cy="-2586" rx="202.56" ry="18"/>
<text text-anchor="middle" x="783" y="-2582.3" font-family="Times,serif" font-size="14.00">1@629 &#45; HotspotNodeType.LOOP &#160;0.206s</text>
</g>
<!-- step 3\n[]\n/home/lukas/git/benchmark_harness/auto_tuner_benchmarks/NPB/IS/IS_orig_without_metadata\n14.797s&#45;&gt;1@629 &#45; HotspotNodeType.LOOP &#160;0.206s -->
<g id="edge9" class="edge">
<title>step 3\n[]\n/home/lukas/git/benchmark_harness/auto_tuner_benchmarks/NPB/IS/IS_orig_without_metadata\n14.797s&#45;&gt;1@629 &#45; HotspotNodeType.LOOP &#160;0.206s</title>
<path fill="none" stroke="black" d="M783,-2640C783,-2631.56 783,-2622.59 783,-2614.47"/>
<polygon fill="black" stroke="black" points="786.5,-2614.4 783,-2604.4 779.5,-2614.4 786.5,-2614.4"/>
</g>
<!-- step 4\n[]\n/home/lukas/git/benchmark_harness/auto_tuner_benchmarks/NPB/IS/IS_orig_without_metadata\n14.797s -->
<g id="node11" class="node">
<title>step 4\n[]\n/home/lukas/git/benchmark_harness/auto_tuner_benchmarks/NPB/IS/IS_orig_without_metadata\n14.797s</title>
<polygon fill="green" stroke="black" points="1130.5,-2532 435.5,-2532 435.5,-2464 1130.5,-2464 1130.5,-2532"/>
<text text-anchor="middle" x="783" y="-2516.8" font-family="Times,serif" font-size="14.00">step 4</text>
<text text-anchor="middle" x="783" y="-2501.8" font-family="Times,serif" font-size="14.00">[]</text>
<text text-anchor="middle" x="783" y="-2486.8" font-family="Times,serif" font-size="14.00">/home/lukas/git/benchmark_harness/auto_tuner_benchmarks/NPB/IS/IS_orig_without_metadata</text>
<text text-anchor="middle" x="783" y="-2471.8" font-family="Times,serif" font-size="14.00">14.797s</text>
</g>
<!-- 1@629 &#45; HotspotNodeType.LOOP &#160;0.206s&#45;&gt;step 4\n[]\n/home/lukas/git/benchmark_harness/auto_tuner_benchmarks/NPB/IS/IS_orig_without_metadata\n14.797s -->
<g id="edge10" class="edge">
<title>1@629 &#45; HotspotNodeType.LOOP &#160;0.206s&#45;&gt;step 4\n[]\n/home/lukas/git/benchmark_harness/auto_tuner_benchmarks/NPB/IS/IS_orig_without_metadata\n14.797s</title>
<path fill="none" stroke="black" d="M783,-2567.6C783,-2560.18 783,-2551.16 783,-2542.14"/>
<polygon fill="black" stroke="black" points="786.5,-2542.03 783,-2532.03 779.5,-2542.03 786.5,-2542.03"/>
</g>
<!-- 1@584 &#45; HotspotNodeType.LOOP &#160;0.058s -->
<g id="node12" class="node">
<title>1@584 &#45; HotspotNodeType.LOOP &#160;0.058s</title>
<ellipse fill="white" stroke="black" cx="783" cy="-2410" rx="202.56" ry="18"/>
<text text-anchor="middle" x="783" y="-2406.3" font-family="Times,serif" font-size="14.00">1@584 &#45; HotspotNodeType.LOOP &#160;0.058s</text>
</g>
<!-- step 4\n[]\n/home/lukas/git/benchmark_harness/auto_tuner_benchmarks/NPB/IS/IS_orig_without_metadata\n14.797s&#45;&gt;1@584 &#45; HotspotNodeType.LOOP &#160;0.058s -->
<g id="edge11" class="edge">
<title>step 4\n[]\n/home/lukas/git/benchmark_harness/auto_tuner_benchmarks/NPB/IS/IS_orig_without_metadata\n14.797s&#45;&gt;1@584 &#45; HotspotNodeType.LOOP &#160;0.058s</title>
<path fill="none" stroke="black" d="M783,-2464C783,-2455.56 783,-2446.59 783,-2438.47"/>
<polygon fill="black" stroke="black" points="786.5,-2438.4 783,-2428.4 779.5,-2438.4 786.5,-2438.4"/>
</g>
<!-- step 5\n[]\n/home/lukas/git/benchmark_harness/auto_tuner_benchmarks/NPB/IS/IS_orig_without_metadata\n14.797s -->
<g id="node13" class="node">
<title>step 5\n[]\n/home/lukas/git/benchmark_harness/auto_tuner_benchmarks/NPB/IS/IS_orig_without_metadata\n14.797s</title>
<polygon fill="green" stroke="black" points="1130.5,-2356 435.5,-2356 435.5,-2288 1130.5,-2288 1130.5,-2356"/>
<text text-anchor="middle" x="783" y="-2340.8" font-family="Times,serif" font-size="14.00">step 5</text>
<text text-anchor="middle" x="783" y="-2325.8" font-family="Times,serif" font-size="14.00">[]</text>
<text text-anchor="middle" x="783" y="-2310.8" font-family="Times,serif" font-size="14.00">/home/lukas/git/benchmark_harness/auto_tuner_benchmarks/NPB/IS/IS_orig_without_metadata</text>
<text text-anchor="middle" x="783" y="-2295.8" font-family="Times,serif" font-size="14.00">14.797s</text>
</g>
<!-- 1@584 &#45; HotspotNodeType.LOOP &#160;0.058s&#45;&gt;step 5\n[]\n/home/lukas/git/benchmark_harness/auto_tuner_benchmarks/NPB/IS/IS_orig_without_metadata\n14.797s -->
<g id="edge12" class="edge">
<title>1@584 &#45; HotspotNodeType.LOOP &#160;0.058s&#45;&gt;step 5\n[]\n/home/lukas/git/benchmark_harness/auto_tuner_benchmarks/NPB/IS/IS_orig_without_metadata\n14.797s</title>
<path fill="none" stroke="black" d="M783,-2391.6C783,-2384.18 783,-2375.16 783,-2366.14"/>
<polygon fill="black" stroke="black" points="786.5,-2366.03 783,-2356.03 779.5,-2366.03 786.5,-2366.03"/>
</g>
<!-- 1@506 &#45; HotspotNodeType.LOOP &#160;0.027s -->
<g id="node14" class="node">
<title>1@506 &#45; HotspotNodeType.LOOP &#160;0.027s</title>
<ellipse fill="white" stroke="black" cx="783" cy="-2234" rx="202.56" ry="18"/>
<text text-anchor="middle" x="783" y="-2230.3" font-family="Times,serif" font-size="14.00">1@506 &#45; HotspotNodeType.LOOP &#160;0.027s</text>
</g>
<!-- step 5\n[]\n/home/lukas/git/benchmark_harness/auto_tuner_benchmarks/NPB/IS/IS_orig_without_metadata\n14.797s&#45;&gt;1@506 &#45; HotspotNodeType.LOOP &#160;0.027s -->
<g id="edge13" class="edge">
<title>step 5\n[]\n/home/lukas/git/benchmark_harness/auto_tuner_benchmarks/NPB/IS/IS_orig_without_metadata\n14.797s&#45;&gt;1@506 &#45; HotspotNodeType.LOOP &#160;0.027s</title>
<path fill="none" stroke="black" d="M783,-2288C783,-2279.56 783,-2270.59 783,-2262.47"/>
<polygon fill="black" stroke="black" points="786.5,-2262.4 783,-2252.4 779.5,-2262.4 786.5,-2262.4"/>
</g>
<!-- step 6\n[]\n/home/lukas/git/benchmark_harness/auto_tuner_benchmarks/NPB/IS/IS_orig_without_metadata\n14.797s -->
<g id="node15" class="node">
<title>step 6\n[]\n/home/lukas/git/benchmark_harness/auto_tuner_benchmarks/NPB/IS/IS_orig_without_metadata\n14.797s</title>
<polygon fill="green" stroke="black" points="1130.5,-2180 435.5,-2180 435.5,-2112 1130.5,-2112 1130.5,-2180"/>
<text text-anchor="middle" x="783" y="-2164.8" font-family="Times,serif" font-size="14.00">step 6</text>
<text text-anchor="middle" x="783" y="-2149.8" font-family="Times,serif" font-size="14.00">[]</text>
<text text-anchor="middle" x="783" y="-2134.8" font-family="Times,serif" font-size="14.00">/home/lukas/git/benchmark_harness/auto_tuner_benchmarks/NPB/IS/IS_orig_without_metadata</text>
<text text-anchor="middle" x="783" y="-2119.8" font-family="Times,serif" font-size="14.00">14.797s</text>
</g>
<!-- 1@506 &#45; HotspotNodeType.LOOP &#160;0.027s&#45;&gt;step 6\n[]\n/home/lukas/git/benchmark_harness/auto_tuner_benchmarks/NPB/IS/IS_orig_without_metadata\n14.797s -->
<g id="edge14" class="edge">
<title>1@506 &#45; HotspotNodeType.LOOP &#160;0.027s&#45;&gt;step 6\n[]\n/home/lukas/git/benchmark_harness/auto_tuner_benchmarks/NPB/IS/IS_orig_without_metadata\n14.797s</title>
<path fill="none" stroke="black" d="M783,-2215.6C783,-2208.18 783,-2199.16 783,-2190.14"/>
<polygon fill="black" stroke="black" points="786.5,-2190.03 783,-2180.03 779.5,-2190.03 786.5,-2190.03"/>
</g>
<!-- 1@508 &#45; HotspotNodeType.LOOP &#160;0.027s -->
<g id="node16" class="node">
<title>1@508 &#45; HotspotNodeType.LOOP &#160;0.027s</title>
<ellipse fill="white" stroke="black" cx="783" cy="-2058" rx="202.56" ry="18"/>
<text text-anchor="middle" x="783" y="-2054.3" font-family="Times,serif" font-size="14.00">1@508 &#45; HotspotNodeType.LOOP &#160;0.027s</text>
</g>
<!-- step 6\n[]\n/home/lukas/git/benchmark_harness/auto_tuner_benchmarks/NPB/IS/IS_orig_without_metadata\n14.797s&#45;&gt;1@508 &#45; HotspotNodeType.LOOP &#160;0.027s -->
<g id="edge15" class="edge">
<title>step 6\n[]\n/home/lukas/git/benchmark_harness/auto_tuner_benchmarks/NPB/IS/IS_orig_without_metadata\n14.797s&#45;&gt;1@508 &#45; HotspotNodeType.LOOP &#160;0.027s</title>
<path fill="none" stroke="black" d="M783,-2112C783,-2103.56 783,-2094.59 783,-2086.47"/>
<polygon fill="black" stroke="black" points="786.5,-2086.4 783,-2076.4 779.5,-2086.4 786.5,-2086.4"/>
</g>
<!-- step 7\n[]\n/home/lukas/git/benchmark_harness/auto_tuner_benchmarks/NPB/IS/IS_orig_without_metadata\n14.797s -->
<g id="node17" class="node">
<title>step 7\n[]\n/home/lukas/git/benchmark_harness/auto_tuner_benchmarks/NPB/IS/IS_orig_without_metadata\n14.797s</title>
<polygon fill="green" stroke="black" points="1130.5,-2004 435.5,-2004 435.5,-1936 1130.5,-1936 1130.5,-2004"/>
<text text-anchor="middle" x="783" y="-1988.8" font-family="Times,serif" font-size="14.00">step 7</text>
<text text-anchor="middle" x="783" y="-1973.8" font-family="Times,serif" font-size="14.00">[]</text>
<text text-anchor="middle" x="783" y="-1958.8" font-family="Times,serif" font-size="14.00">/home/lukas/git/benchmark_harness/auto_tuner_benchmarks/NPB/IS/IS_orig_without_metadata</text>
<text text-anchor="middle" x="783" y="-1943.8" font-family="Times,serif" font-size="14.00">14.797s</text>
</g>
<!-- 1@508 &#45; HotspotNodeType.LOOP &#160;0.027s&#45;&gt;step 7\n[]\n/home/lukas/git/benchmark_harness/auto_tuner_benchmarks/NPB/IS/IS_orig_without_metadata\n14.797s -->
<g id="edge16" class="edge">
<title>1@508 &#45; HotspotNodeType.LOOP &#160;0.027s&#45;&gt;step 7\n[]\n/home/lukas/git/benchmark_harness/auto_tuner_benchmarks/NPB/IS/IS_orig_without_metadata\n14.797s</title>
<path fill="none" stroke="black" d="M783,-2039.6C783,-2032.18 783,-2023.16 783,-2014.14"/>
<polygon fill="black" stroke="black" points="786.5,-2014.03 783,-2004.03 779.5,-2014.03 786.5,-2014.03"/>
</g>
<!-- 1@437 &#45; HotspotNodeType.LOOP &#160;0.026s -->
<g id="node18" class="node">
<title>1@437 &#45; HotspotNodeType.LOOP &#160;0.026s</title>
<ellipse fill="white" stroke="black" cx="783" cy="-1882" rx="202.56" ry="18"/>
<text text-anchor="middle" x="783" y="-1878.3" font-family="Times,serif" font-size="14.00">1@437 &#45; HotspotNodeType.LOOP &#160;0.026s</text>
</g>
<!-- step 7\n[]\n/home/lukas/git/benchmark_harness/auto_tuner_benchmarks/NPB/IS/IS_orig_without_metadata\n14.797s&#45;&gt;1@437 &#45; HotspotNodeType.LOOP &#160;0.026s -->
<g id="edge17" class="edge">
<title>step 7\n[]\n/home/lukas/git/benchmark_harness/auto_tuner_benchmarks/NPB/IS/IS_orig_without_metadata\n14.797s&#45;&gt;1@437 &#45; HotspotNodeType.LOOP &#160;0.026s</title>
<path fill="none" stroke="black" d="M783,-1936C783,-1927.56 783,-1918.59 783,-1910.47"/>
<polygon fill="black" stroke="black" points="786.5,-1910.4 783,-1900.4 779.5,-1910.4 786.5,-1910.4"/>
</g>
<!-- step 8\n[]\n/home/lukas/git/benchmark_harness/auto_tuner_benchmarks/NPB/IS/IS_orig_without_metadata\n14.797s -->
<g id="node19" class="node">
<title>step 8\n[]\n/home/lukas/git/benchmark_harness/auto_tuner_benchmarks/NPB/IS/IS_orig_without_metadata\n14.797s</title>
<polygon fill="green" stroke="black" points="1130.5,-1828 435.5,-1828 435.5,-1760 1130.5,-1760 1130.5,-1828"/>
<text text-anchor="middle" x="783" y="-1812.8" font-family="Times,serif" font-size="14.00">step 8</text>
<text text-anchor="middle" x="783" y="-1797.8" font-family="Times,serif" font-size="14.00">[]</text>
<text text-anchor="middle" x="783" y="-1782.8" font-family="Times,serif" font-size="14.00">/home/lukas/git/benchmark_harness/auto_tuner_benchmarks/NPB/IS/IS_orig_without_metadata</text>
<text text-anchor="middle" x="783" y="-1767.8" font-family="Times,serif" font-size="14.00">14.797s</text>
</g>
<!-- 1@437 &#45; HotspotNodeType.LOOP &#160;0.026s&#45;&gt;step 8\n[]\n/home/lukas/git/benchmark_harness/auto_tuner_benchmarks/NPB/IS/IS_orig_without_metadata\n14.797s -->
<g id="edge18" class="edge">
<title>1@437 &#45; HotspotNodeType.LOOP &#160;0.026s&#45;&gt;step 8\n[]\n/home/lukas/git/benchmark_harness/auto_tuner_benchmarks/NPB/IS/IS_orig_without_metadata\n14.797s</title>
<path fill="none" stroke="black" d="M783,-1863.6C783,-1856.18 783,-1847.16 783,-1838.14"/>
<polygon fill="black" stroke="black" points="786.5,-1838.03 783,-1828.03 779.5,-1838.03 786.5,-1838.03"/>
</g>
<!-- 1@383 &#45; HotspotNodeType.LOOP &#160;0.016s -->
<g id="node20" class="node">
<title>1@383 &#45; HotspotNodeType.LOOP &#160;0.016s</title>
<ellipse fill="white" stroke="black" cx="783" cy="-1706" rx="202.56" ry="18"/>
<text text-anchor="middle" x="783" y="-1702.3" font-family="Times,serif" font-size="14.00">1@383 &#45; HotspotNodeType.LOOP &#160;0.016s</text>
</g>
<!-- step 8\n[]\n/home/lukas/git/benchmark_harness/auto_tuner_benchmarks/NPB/IS/IS_orig_without_metadata\n14.797s&#45;&gt;1@383 &#45; HotspotNodeType.LOOP &#160;0.016s -->
<g id="edge19" class="edge">
<title>step 8\n[]\n/home/lukas/git/benchmark_harness/auto_tuner_benchmarks/NPB/IS/IS_orig_without_metadata\n14.797s&#45;&gt;1@383 &#45; HotspotNodeType.LOOP &#160;0.016s</title>
<path fill="none" stroke="black" d="M783,-1760C783,-1751.56 783,-1742.59 783,-1734.47"/>
<polygon fill="black" stroke="black" points="786.5,-1734.4 783,-1724.4 779.5,-1734.4 786.5,-1734.4"/>
</g>
<!-- step 9\n[4]\n/home/lukas/git/benchmark_harness/auto_tuner_benchmarks/NPB/IS/IS_orig_without_metadata_dpautotune_1\n14.814s -->
<g id="node21" class="node">
<title>step 9\n[4]\n/home/lukas/git/benchmark_harness/auto_tuner_benchmarks/NPB/IS/IS_orig_without_metadata_dpautotune_1\n14.814s</title>
<polygon fill="green" stroke="black" points="800,-1652 0,-1652 0,-1584 800,-1584 800,-1652"/>
<text text-anchor="middle" x="400" y="-1636.8" font-family="Times,serif" font-size="14.00">step 9</text>
<text text-anchor="middle" x="400" y="-1621.8" font-family="Times,serif" font-size="14.00">[4]</text>
<text text-anchor="middle" x="400" y="-1606.8" font-family="Times,serif" font-size="14.00">/home/lukas/git/benchmark_harness/auto_tuner_benchmarks/NPB/IS/IS_orig_without_metadata_dpautotune_1</text>
<text text-anchor="middle" x="400" y="-1591.8" font-family="Times,serif" font-size="14.00">14.814s</text>
</g>
<!-- 1@383 &#45; HotspotNodeType.LOOP &#160;0.016s&#45;&gt;step 9\n[4]\n/home/lukas/git/benchmark_harness/auto_tuner_benchmarks/NPB/IS/IS_orig_without_metadata_dpautotune_1\n14.814s -->
<g id="edge20" class="edge">
<title>1@383 &#45; HotspotNodeType.LOOP &#160;0.016s&#45;&gt;step 9\n[4]\n/home/lukas/git/benchmark_harness/auto_tuner_benchmarks/NPB/IS/IS_orig_without_metadata_dpautotune_1\n14.814s</title>
<path fill="none" stroke="black" d="M712.31,-1689.13C668.76,-1679.35 611.13,-1666.41 557.24,-1654.31"/>
<polygon fill="black" stroke="black" points="557.75,-1650.84 547.23,-1652.06 556.22,-1657.67 557.75,-1650.84"/>
</g>
<!-- step 9\n[]\n/home/lukas/git/benchmark_harness/auto_tuner_benchmarks/NPB/IS/IS_orig_without_metadata\n14.797s -->
<g id="node22" class="node">
<title>step 9\n[]\n/home/lukas/git/benchmark_harness/auto_tuner_benchmarks/NPB/IS/IS_orig_without_metadata\n14.797s</title>
<polygon fill="green" stroke="black" points="1513.5,-1652 818.5,-1652 818.5,-1584 1513.5,-1584 1513.5,-1652"/>
<text text-anchor="middle" x="1166" y="-1636.8" font-family="Times,serif" font-size="14.00">step 9</text>
<text text-anchor="middle" x="1166" y="-1621.8" font-family="Times,serif" font-size="14.00">[]</text>
<text text-anchor="middle" x="1166" y="-1606.8" font-family="Times,serif" font-size="14.00">/home/lukas/git/benchmark_harness/auto_tuner_benchmarks/NPB/IS/IS_orig_without_metadata</text>
<text text-anchor="middle" x="1166" y="-1591.8" font-family="Times,serif" font-size="14.00">14.797s</text>
</g>
<!-- 1@383 &#45; HotspotNodeType.LOOP &#160;0.016s&#45;&gt;step 9\n[]\n/home/lukas/git/benchmark_harness/auto_tuner_benchmarks/NPB/IS/IS_orig_without_metadata\n14.797s -->
<g id="edge21" class="edge">
<title>1@383 &#45; HotspotNodeType.LOOP &#160;0.016s&#45;&gt;step 9\n[]\n/home/lukas/git/benchmark_harness/auto_tuner_benchmarks/NPB/IS/IS_orig_without_metadata\n14.797s</title>
<path fill="none" stroke="black" d="M853.69,-1689.13C897.24,-1679.35 954.87,-1666.41 1008.76,-1654.31"/>
<polygon fill="black" stroke="black" points="1009.78,-1657.67 1018.77,-1652.06 1008.25,-1650.84 1009.78,-1657.67"/>
</g>
<!-- 1@532 &#45; HotspotNodeType.LOOP &#160;0.01s -->
<g id="node23" class="node">
<title>1@532 &#45; HotspotNodeType.LOOP &#160;0.01s</title>
<ellipse fill="orange" stroke="black" cx="1166" cy="-1530" rx="196.87" ry="18"/>
<text text-anchor="middle" x="1166" y="-1526.3" font-family="Times,serif" font-size="14.00">1@532 &#45; HotspotNodeType.LOOP &#160;0.01s</text>
</g>
<!-- step 9\n[]\n/home/lukas/git/benchmark_harness/auto_tuner_benchmarks/NPB/IS/IS_orig_without_metadata\n14.797s&#45;&gt;1@532 &#45; HotspotNodeType.LOOP &#160;0.01s -->
<g id="edge22" class="edge">
<title>step 9\n[]\n/home/lukas/git/benchmark_harness/auto_tuner_benchmarks/NPB/IS/IS_orig_without_metadata\n14.797s&#45;&gt;1@532 &#45; HotspotNodeType.LOOP &#160;0.01s</title>
<path fill="none" stroke="black" d="M1166,-1584C1166,-1575.56 1166,-1566.59 1166,-1558.47"/>
<polygon fill="black" stroke="black" points="1169.5,-1558.4 1166,-1548.4 1162.5,-1558.4 1169.5,-1558.4"/>
</g>
<!-- 1@622 &#45; HotspotNodeType.LOOP &#160;0.009s -->
<g id="node24" class="node">
<title>1@622 &#45; HotspotNodeType.LOOP &#160;0.009s</title>
<ellipse fill="orange" stroke="black" cx="1166" cy="-1458" rx="202.56" ry="18"/>
<text text-anchor="middle" x="1166" y="-1454.3" font-family="Times,serif" font-size="14.00">1@622 &#45; HotspotNodeType.LOOP &#160;0.009s</text>
</g>
<!-- 1@532 &#45; HotspotNodeType.LOOP &#160;0.01s&#45;&gt;1@622 &#45; HotspotNodeType.LOOP &#160;0.009s -->
<g id="edge23" class="edge">
<title>1@532 &#45; HotspotNodeType.LOOP &#160;0.01s&#45;&gt;1@622 &#45; HotspotNodeType.LOOP &#160;0.009s</title>
<path fill="none" stroke="black" d="M1166,-1511.7C1166,-1503.98 1166,-1494.71 1166,-1486.11"/>
<polygon fill="black" stroke="black" points="1169.5,-1486.1 1166,-1476.1 1162.5,-1486.1 1169.5,-1486.1"/>
</g>
<!-- 1@635 &#45; HotspotNodeType.LOOP &#160;0.007s -->
<g id="node25" class="node">
<title>1@635 &#45; HotspotNodeType.LOOP &#160;0.007s</title>
<ellipse fill="orange" stroke="black" cx="1166" cy="-1386" rx="202.56" ry="18"/>
<text text-anchor="middle" x="1166" y="-1382.3" font-family="Times,serif" font-size="14.00">1@635 &#45; HotspotNodeType.LOOP &#160;0.007s</text>
</g>
<!-- 1@622 &#45; HotspotNodeType.LOOP &#160;0.009s&#45;&gt;1@635 &#45; HotspotNodeType.LOOP &#160;0.007s -->
<g id="edge24" class="edge">
<title>1@622 &#45; HotspotNodeType.LOOP &#160;0.009s&#45;&gt;1@635 &#45; HotspotNodeType.LOOP &#160;0.007s</title>
<path fill="none" stroke="black" d="M1166,-1439.7C1166,-1431.98 1166,-1422.71 1166,-1414.11"/>
<polygon fill="black" stroke="black" points="1169.5,-1414.1 1166,-1404.1 1162.5,-1414.1 1169.5,-1414.1"/>
</g>
<!-- 1@309 &#45; HotspotNodeType.LOOP &#160;0.004s -->
<g id="node26" class="node">
<title>1@309 &#45; HotspotNodeType.LOOP &#160;0.004s</title>
<ellipse fill="orange" stroke="black" cx="1166" cy="-1314" rx="202.56" ry="18"/>
<text text-anchor="middle" x="1166" y="-1310.3" font-family="Times,serif" font-size="14.00">1@309 &#45; HotspotNodeType.LOOP &#160;0.004s</text>
</g>
<!-- 1@635 &#45; HotspotNodeType.LOOP &#160;0.007s&#45;&gt;1@309 &#45; HotspotNodeType.LOOP &#160;0.004s -->
<g id="edge25" class="edge">
<title>1@635 &#45; HotspotNodeType.LOOP &#160;0.007s&#45;&gt;1@309 &#45; HotspotNodeType.LOOP &#160;0.004s</title>
<path fill="none" stroke="black" d="M1166,-1367.7C1166,-1359.98 1166,-1350.71 1166,-1342.11"/>
<polygon fill="black" stroke="black" points="1169.5,-1342.1 1166,-1332.1 1162.5,-1342.1 1169.5,-1342.1"/>
</g>
<!-- 1@618 &#45; HotspotNodeType.LOOP &#160;0.002s -->
<g id="node27" class="node">
<title>1@618 &#45; HotspotNodeType.LOOP &#160;0.002s</title>
<ellipse fill="orange" stroke="black" cx="1166" cy="-1242" rx="202.56" ry="18"/>
<text text-anchor="middle" x="1166" y="-1238.3" font-family="Times,serif" font-size="14.00">1@618 &#45; HotspotNodeType.LOOP &#160;0.002s</text>
</g>
<!-- 1@309 &#45; HotspotNodeType.LOOP &#160;0.004s&#45;&gt;1@618 &#45; HotspotNodeType.LOOP &#160;0.002s -->
<g id="edge26" class="edge">
<title>1@309 &#45; HotspotNodeType.LOOP &#160;0.004s&#45;&gt;1@618 &#45; HotspotNodeType.LOOP &#160;0.002s</title>
<path fill="none" stroke="black" d="M1166,-1295.7C1166,-1287.98 1166,-1278.71 1166,-1270.11"/>
<polygon fill="black" stroke="black" points="1169.5,-1270.1 1166,-1260.1 1162.5,-1270.1 1169.5,-1270.1"/>
</g>
<!-- 1@629 &#45; HotspotNodeType.LOOP &#160;0.002s -->
<g id="node28" class="node">
<title>1@629 &#45; HotspotNodeType.LOOP &#160;0.002s</title>
<ellipse fill="orange" stroke="black" cx="1166" cy="-1170" rx="202.56" ry="18"/>
<text text-anchor="middle" x="1166" y="-1166.3" font-family="Times,serif" font-size="14.00">1@629 &#45; HotspotNodeType.LOOP &#160;0.002s</text>
</g>
<!-- 1@618 &#45; HotspotNodeType.LOOP &#160;0.002s&#45;&gt;1@629 &#45; HotspotNodeType.LOOP &#160;0.002s -->
<g id="edge27" class="edge">
<title>1@618 &#45; HotspotNodeType.LOOP &#160;0.002s&#45;&gt;1@629 &#45; HotspotNodeType.LOOP &#160;0.002s</title>
<path fill="none" stroke="black" d="M1166,-1223.7C1166,-1215.98 1166,-1206.71 1166,-1198.11"/>
<polygon fill="black" stroke="black" points="1169.5,-1198.1 1166,-1188.1 1162.5,-1198.1 1169.5,-1198.1"/>
</g>
<!-- 1@602 &#45; HotspotNodeType.LOOP &#160;0.001s -->
<g id="node29" class="node">
<title>1@602 &#45; HotspotNodeType.LOOP &#160;0.001s</title>
<ellipse fill="orange" stroke="black" cx="1166" cy="-1098" rx="202.56" ry="18"/>
<text text-anchor="middle" x="1166" y="-1094.3" font-family="Times,serif" font-size="14.00">1@602 &#45; HotspotNodeType.LOOP &#160;0.001s</text>
</g>
<!-- 1@629 &#45; HotspotNodeType.LOOP &#160;0.002s&#45;&gt;1@602 &#45; HotspotNodeType.LOOP &#160;0.001s -->
<g id="edge28" class="edge">
<title>1@629 &#45; HotspotNodeType.LOOP &#160;0.002s&#45;&gt;1@602 &#45; HotspotNodeType.LOOP &#160;0.001s</title>
<path fill="none" stroke="black" d="M1166,-1151.7C1166,-1143.98 1166,-1134.71 1166,-1126.11"/>
<polygon fill="black" stroke="black" points="1169.5,-1126.1 1166,-1116.1 1162.5,-1126.1 1169.5,-1126.1"/>
</g>
<!-- 1@593 &#45; HotspotNodeType.LOOP &#160;0.001s -->
<g id="node30" class="node">
<title>1@593 &#45; HotspotNodeType.LOOP &#160;0.001s</title>
<ellipse fill="orange" stroke="black" cx="1166" cy="-1026" rx="202.56" ry="18"/>
<text text-anchor="middle" x="1166" y="-1022.3" font-family="Times,serif" font-size="14.00">1@593 &#45; HotspotNodeType.LOOP &#160;0.001s</text>
</g>
<!-- 1@602 &#45; HotspotNodeType.LOOP &#160;0.001s&#45;&gt;1@593 &#45; HotspotNodeType.LOOP &#160;0.001s -->
<g id="edge29" class="edge">
<title>1@602 &#45; HotspotNodeType.LOOP &#160;0.001s&#45;&gt;1@593 &#45; HotspotNodeType.LOOP &#160;0.001s</title>
<path fill="none" stroke="black" d="M1166,-1079.7C1166,-1071.98 1166,-1062.71 1166,-1054.11"/>
<polygon fill="black" stroke="black" points="1169.5,-1054.1 1166,-1044.1 1162.5,-1054.1 1169.5,-1054.1"/>
</g>
<!-- 1@584 &#45; HotspotNodeType.LOOP &#160;0.0s -->
<g id="node31" class="node">
<title>1@584 &#45; HotspotNodeType.LOOP &#160;0.0s</title>
<ellipse fill="orange" stroke="black" cx="1166" cy="-954" rx="191.17" ry="18"/>
<text text-anchor="middle" x="1166" y="-950.3" font-family="Times,serif" font-size="14.00">1@584 &#45; HotspotNodeType.LOOP &#160;0.0s</text>
</g>
<!-- 1@593 &#45; HotspotNodeType.LOOP &#160;0.001s&#45;&gt;1@584 &#45; HotspotNodeType.LOOP &#160;0.0s -->
<g id="edge30" class="edge">
<title>1@593 &#45; HotspotNodeType.LOOP &#160;0.001s&#45;&gt;1@584 &#45; HotspotNodeType.LOOP &#160;0.0s</title>
<path fill="none" stroke="black" d="M1166,-1007.7C1166,-999.98 1166,-990.71 1166,-982.11"/>
<polygon fill="black" stroke="black" points="1169.5,-982.1 1166,-972.1 1162.5,-982.1 1169.5,-982.1"/>
</g>
<!-- 1@593 &#45; HotspotNodeType.LOOP &#160;0.0s -->
<g id="node32" class="node">
<title>1@593 &#45; HotspotNodeType.LOOP &#160;0.0s</title>
<ellipse fill="orange" stroke="black" cx="1166" cy="-882" rx="191.17" ry="18"/>
<text text-anchor="middle" x="1166" y="-878.3" font-family="Times,serif" font-size="14.00">1@593 &#45; HotspotNodeType.LOOP &#160;0.0s</text>
</g>
<!-- 1@584 &#45; HotspotNodeType.LOOP &#160;0.0s&#45;&gt;1@593 &#45; HotspotNodeType.LOOP &#160;0.0s -->
<g id="edge31" class="edge">
<title>1@584 &#45; HotspotNodeType.LOOP &#160;0.0s&#45;&gt;1@593 &#45; HotspotNodeType.LOOP &#160;0.0s</title>
<path fill="none" stroke="black" d="M1166,-935.7C1166,-927.98 1166,-918.71 1166,-910.11"/>
<polygon fill="black" stroke="black" points="1169.5,-910.1 1166,-900.1 1162.5,-910.1 1169.5,-910.1"/>
</g>
<!-- 1@506 &#45; HotspotNodeType.LOOP &#160;0.0s -->
<g id="node33" class="node">
<title>1@506 &#45; HotspotNodeType.LOOP &#160;0.0s</title>
<ellipse fill="orange" stroke="black" cx="1166" cy="-810" rx="191.17" ry="18"/>
<text text-anchor="middle" x="1166" y="-806.3" font-family="Times,serif" font-size="14.00">1@506 &#45; HotspotNodeType.LOOP &#160;0.0s</text>
</g>
<!-- 1@593 &#45; HotspotNodeType.LOOP &#160;0.0s&#45;&gt;1@506 &#45; HotspotNodeType.LOOP &#160;0.0s -->
<g id="edge32" class="edge">
<title>1@593 &#45; HotspotNodeType.LOOP &#160;0.0s&#45;&gt;1@506 &#45; HotspotNodeType.LOOP &#160;0.0s</title>
<path fill="none" stroke="black" d="M1166,-863.7C1166,-855.98 1166,-846.71 1166,-838.11"/>
<polygon fill="black" stroke="black" points="1169.5,-838.1 1166,-828.1 1162.5,-838.1 1169.5,-838.1"/>
</g>
<!-- 1@508 &#45; HotspotNodeType.LOOP &#160;0.0s -->
<g id="node34" class="node">
<title>1@508 &#45; HotspotNodeType.LOOP &#160;0.0s</title>
<ellipse fill="orange" stroke="black" cx="1166" cy="-738" rx="191.17" ry="18"/>
<text text-anchor="middle" x="1166" y="-734.3" font-family="Times,serif" font-size="14.00">1@508 &#45; HotspotNodeType.LOOP &#160;0.0s</text>
</g>
<!-- 1@506 &#45; HotspotNodeType.LOOP &#160;0.0s&#45;&gt;1@508 &#45; HotspotNodeType.LOOP &#160;0.0s -->
<g id="edge33" class="edge">
<title>1@506 &#45; HotspotNodeType.LOOP &#160;0.0s&#45;&gt;1@508 &#45; HotspotNodeType.LOOP &#160;0.0s</title>
<path fill="none" stroke="black" d="M1166,-791.7C1166,-783.98 1166,-774.71 1166,-766.11"/>
<polygon fill="black" stroke="black" points="1169.5,-766.1 1166,-756.1 1162.5,-766.1 1169.5,-766.1"/>
</g>
<!-- 1@597 &#45; HotspotNodeType.LOOP &#160;0.0s -->
<g id="node35" class="node">
<title>1@597 &#45; HotspotNodeType.LOOP &#160;0.0s</title>
<ellipse fill="orange" stroke="black" cx="1166" cy="-666" rx="191.17" ry="18"/>
<text text-anchor="middle" x="1166" y="-662.3" font-family="Times,serif" font-size="14.00">1@597 &#45; HotspotNodeType.LOOP &#160;0.0s</text>
</g>
<!-- 1@508 &#45; HotspotNodeType.LOOP &#160;0.0s&#45;&gt;1@597 &#45; HotspotNodeType.LOOP &#160;0.0s -->
<g id="edge34" class="edge">
<title>1@508 &#45; HotspotNodeType.LOOP &#160;0.0s&#45;&gt;1@597 &#45; HotspotNodeType.LOOP &#160;0.0s</title>
<path fill="none" stroke="black" d="M1166,-719.7C1166,-711.98 1166,-702.71 1166,-694.11"/>
<polygon fill="black" stroke="black" points="1169.5,-694.1 1166,-684.1 1162.5,-694.1 1169.5,-694.1"/>
</g>
<!-- 1@595 &#45; HotspotNodeType.LOOP &#160;0.0s -->
<g id="node36" class="node">
<title>1@595 &#45; HotspotNodeType.LOOP &#160;0.0s</title>
<ellipse fill="orange" stroke="black" cx="1057" cy="-594" rx="191.17" ry="18"/>
<text text-anchor="middle" x="1057" y="-590.3" font-family="Times,serif" font-size="14.00">1@595 &#45; HotspotNodeType.LOOP &#160;0.0s</text>
</g>
<!-- 1@597 &#45; HotspotNodeType.LOOP &#160;0.0s&#45;&gt;1@595 &#45; HotspotNodeType.LOOP &#160;0.0s -->
<g id="edge35" class="edge">
<title>1@597 &#45; HotspotNodeType.LOOP &#160;0.0s&#45;&gt;1@595 &#45; HotspotNodeType.LOOP &#160;0.0s</title>
<path fill="none" stroke="black" d="M1139.61,-648.05C1125.39,-638.92 1107.66,-627.53 1092.27,-617.65"/>
<polygon fill="black" stroke="black" points="1093.83,-614.49 1083.52,-612.03 1090.04,-620.38 1093.83,-614.49"/>
</g>
<!-- 1@383 &#45; HotspotNodeType.LOOP &#160;0.0s -->
<g id="node37" class="node">
<title>1@383 &#45; HotspotNodeType.LOOP &#160;0.0s</title>
<ellipse fill="orange" stroke="black" cx="1057" cy="-522" rx="191.17" ry="18"/>
<text text-anchor="middle" x="1057" y="-518.3" font-family="Times,serif" font-size="14.00">1@383 &#45; HotspotNodeType.LOOP &#160;0.0s</text>
</g>
<!-- 1@595 &#45; HotspotNodeType.LOOP &#160;0.0s&#45;&gt;1@383 &#45; HotspotNodeType.LOOP &#160;0.0s -->
<g id="edge36" class="edge">
<title>1@595 &#45; HotspotNodeType.LOOP &#160;0.0s&#45;&gt;1@383 &#45; HotspotNodeType.LOOP &#160;0.0s</title>
<path fill="none" stroke="black" d="M1057,-575.7C1057,-567.98 1057,-558.71 1057,-550.11"/>
<polygon fill="black" stroke="black" points="1060.5,-550.1 1057,-540.1 1053.5,-550.1 1060.5,-550.1"/>
</g>
<!-- 1@635 &#45; HotspotNodeType.LOOP &#160;0.0s -->
<g id="node39" class="node">
<title>1@635 &#45; HotspotNodeType.LOOP &#160;0.0s</title>
<ellipse fill="orange" stroke="black" cx="657" cy="-522" rx="191.17" ry="18"/>
<text text-anchor="middle" x="657" y="-518.3" font-family="Times,serif" font-size="14.00">1@635 &#45; HotspotNodeType.LOOP &#160;0.0s</text>
</g>
<!-- 1@595 &#45; HotspotNodeType.LOOP &#160;0.0s&#45;&gt;1@635 &#45; HotspotNodeType.LOOP &#160;0.0s -->
<g id="edge37" class="edge">
<title>1@595 &#45; HotspotNodeType.LOOP &#160;0.0s&#45;&gt;1@635 &#45; HotspotNodeType.LOOP &#160;0.0s</title>
<path fill="none" stroke="black" d="M970.7,-577.9C906.69,-566.7 819.42,-551.42 753.18,-539.83"/>
<polygon fill="black" stroke="black" points="753.6,-536.35 743.15,-538.08 752.39,-543.25 753.6,-536.35"/>
</g>
<!-- 1@622 &#45; HotspotNodeType.LOOP &#160;0.0s -->
<g id="node38" class="node">
<title>1@622 &#45; HotspotNodeType.LOOP &#160;0.0s</title>
<ellipse fill="orange" stroke="black" cx="1166" cy="-450" rx="191.17" ry="18"/>
<text text-anchor="middle" x="1166" y="-446.3" font-family="Times,serif" font-size="14.00">1@622 &#45; HotspotNodeType.LOOP &#160;0.0s</text>
</g>
<!-- 1@383 &#45; HotspotNodeType.LOOP &#160;0.0s&#45;&gt;1@622 &#45; HotspotNodeType.LOOP &#160;0.0s -->
<g id="edge38" class="edge">
<title>1@383 &#45; HotspotNodeType.LOOP &#160;0.0s&#45;&gt;1@622 &#45; HotspotNodeType.LOOP &#160;0.0s</title>
<path fill="none" stroke="black" d="M1083.39,-504.05C1097.61,-494.92 1115.34,-483.53 1130.73,-473.65"/>
<polygon fill="black" stroke="black" points="1132.96,-476.38 1139.48,-468.03 1129.17,-470.49 1132.96,-476.38"/>
</g>
<!-- 1@622 &#45; HotspotNodeType.LOOP &#160;0.0s&#45;&gt;1@597 &#45; HotspotNodeType.LOOP &#160;0.0s -->
<g id="edge39" class="edge">
<title>1@622 &#45; HotspotNodeType.LOOP &#160;0.0s&#45;&gt;1@597 &#45; HotspotNodeType.LOOP &#160;0.0s</title>
<path fill="none" stroke="black" d="M1214.13,-467.43C1230.73,-475.68 1247.52,-487.52 1257,-504 1280.92,-545.61 1280.92,-570.39 1257,-612 1249.23,-625.52 1236.53,-635.92 1223.05,-643.77"/>
<polygon fill="black" stroke="black" points="1221.28,-640.75 1214.13,-648.57 1224.59,-646.92 1221.28,-640.75"/>
</g>
<!-- 1@532 &#45; HotspotNodeType.LOOP &#160;0.0s -->
<g id="node40" class="node">
<title>1@532 &#45; HotspotNodeType.LOOP &#160;0.0s</title>
<ellipse fill="orange" stroke="black" cx="657" cy="-450" rx="191.17" ry="18"/>
<text text-anchor="middle" x="657" y="-446.3" font-family="Times,serif" font-size="14.00">1@532 &#45; HotspotNodeType.LOOP &#160;0.0s</text>
</g>
<!-- 1@635 &#45; HotspotNodeType.LOOP &#160;0.0s&#45;&gt;1@532 &#45; HotspotNodeType.LOOP &#160;0.0s -->
<g id="edge40" class="edge">
<title>1@635 &#45; HotspotNodeType.LOOP &#160;0.0s&#45;&gt;1@532 &#45; HotspotNodeType.LOOP &#160;0.0s</title>
<path fill="none" stroke="black" d="M657,-503.7C657,-495.98 657,-486.71 657,-478.11"/>
<polygon fill="black" stroke="black" points="660.5,-478.1 657,-468.1 653.5,-478.1 660.5,-478.1"/>
</g>
<!-- 1@580 &#45; HotspotNodeType.LOOP &#160;0.0s -->
<g id="node41" class="node">
<title>1@580 &#45; HotspotNodeType.LOOP &#160;0.0s</title>
<ellipse fill="orange" stroke="black" cx="657" cy="-378" rx="191.17" ry="18"/>
<text text-anchor="middle" x="657" y="-374.3" font-family="Times,serif" font-size="14.00">1@580 &#45; HotspotNodeType.LOOP &#160;0.0s</text>
</g>
<!-- 1@532 &#45; HotspotNodeType.LOOP &#160;0.0s&#45;&gt;1@580 &#45; HotspotNodeType.LOOP &#160;0.0s -->
<g id="edge41" class="edge">
<title>1@532 &#45; HotspotNodeType.LOOP &#160;0.0s&#45;&gt;1@580 &#45; HotspotNodeType.LOOP &#160;0.0s</title>
<path fill="none" stroke="black" d="M657,-431.7C657,-423.98 657,-414.71 657,-406.11"/>
<polygon fill="black" stroke="black" points="660.5,-406.1 657,-396.1 653.5,-406.1 660.5,-406.1"/>
</g>
<!-- 1@662 &#45; HotspotNodeType.LOOP &#160;0.0s -->
<g id="node42" class="node">
<title>1@662 &#45; HotspotNodeType.LOOP &#160;0.0s</title>
<ellipse fill="orange" stroke="black" cx="429" cy="-306" rx="191.17" ry="18"/>
<text text-anchor="middle" x="429" y="-302.3" font-family="Times,serif" font-size="14.00">1@662 &#45; HotspotNodeType.LOOP &#160;0.0s</text>
</g>
<!-- 1@580 &#45; HotspotNodeType.LOOP &#160;0.0s&#45;&gt;1@662 &#45; HotspotNodeType.LOOP &#160;0.0s -->
<g id="edge42" class="edge">
<title>1@580 &#45; HotspotNodeType.LOOP &#160;0.0s&#45;&gt;1@662 &#45; HotspotNodeType.LOOP &#160;0.0s</title>
<path fill="none" stroke="black" d="M603.83,-360.68C570.39,-350.41 527.08,-337.11 491.93,-326.32"/>
<polygon fill="black" stroke="black" points="492.84,-322.94 482.25,-323.35 490.78,-329.63 492.84,-322.94"/>
</g>
<!-- 1@379 &#45; HotspotNodeType.LOOP &#160;0.0s -->
<g id="node43" class="node">
<title>1@379 &#45; HotspotNodeType.LOOP &#160;0.0s</title>
<ellipse fill="orange" stroke="black" cx="657" cy="-234" rx="191.17" ry="18"/>
<text text-anchor="middle" x="657" y="-230.3" font-family="Times,serif" font-size="14.00">1@379 &#45; HotspotNodeType.LOOP &#160;0.0s</text>
</g>
<!-- 1@580 &#45; HotspotNodeType.LOOP &#160;0.0s&#45;&gt;1@379 &#45; HotspotNodeType.LOOP &#160;0.0s -->
<g id="edge43" class="edge">
<title>1@580 &#45; HotspotNodeType.LOOP &#160;0.0s&#45;&gt;1@379 &#45; HotspotNodeType.LOOP &#160;0.0s</title>
<path fill="none" stroke="black" d="M652.42,-359.87C649.86,-335.67 649.57,-291.21 651.54,-262.39"/>
<polygon fill="black" stroke="black" points="655.05,-262.45 652.41,-252.19 648.07,-261.86 655.05,-262.45"/>
</g>
<!-- 1@662 &#45; HotspotNodeType.LOOP &#160;0.0s&#45;&gt;1@379 &#45; HotspotNodeType.LOOP &#160;0.0s -->
<g id="edge44" class="edge">
<title>1@662 &#45; HotspotNodeType.LOOP &#160;0.0s&#45;&gt;1@379 &#45; HotspotNodeType.LOOP &#160;0.0s</title>
<path fill="none" stroke="black" d="M482.17,-288.68C515.61,-278.41 558.92,-265.11 594.07,-254.32"/>
<polygon fill="black" stroke="black" points="595.22,-257.63 603.75,-251.35 593.16,-250.94 595.22,-257.63"/>
</g>
<!-- 1@379 &#45; HotspotNodeType.LOOP &#160;0.0s&#45;&gt;1@580 &#45; HotspotNodeType.LOOP &#160;0.0s -->
<g id="edge45" class="edge">
<title>1@379 &#45; HotspotNodeType.LOOP &#160;0.0s&#45;&gt;1@580 &#45; HotspotNodeType.LOOP &#160;0.0s</title>
<path fill="none" stroke="black" d="M661.59,-252.19C664.15,-276.42 664.43,-320.89 662.45,-349.68"/>
<polygon fill="black" stroke="black" points="658.95,-349.61 661.58,-359.87 665.92,-350.21 658.95,-349.61"/>
</g>
<!-- 1@559 &#45; HotspotNodeType.LOOP &#160;0.0s -->
<g id="node44" class="node">
<title>1@559 &#45; HotspotNodeType.LOOP &#160;0.0s</title>
<ellipse fill="orange" stroke="black" cx="657" cy="-162" rx="191.17" ry="18"/>
<text text-anchor="middle" x="657" y="-158.3" font-family="Times,serif" font-size="14.00">1@559 &#45; HotspotNodeType.LOOP &#160;0.0s</text>
</g>
<!-- 1@379 &#45; HotspotNodeType.LOOP &#160;0.0s&#45;&gt;1@559 &#45; HotspotNodeType.LOOP &#160;0.0s -->
<g id="edge46" class="edge">
<title>1@379 &#45; HotspotNodeType.LOOP &#160;0.0s&#45;&gt;1@559 &#45; HotspotNodeType.LOOP &#160;0.0s</title>
<path fill="none" stroke="black" d="M657,-215.7C657,-207.98 657,-198.71 657,-190.11"/>
<polygon fill="black" stroke="black" points="660.5,-190.1 657,-180.1 653.5,-190.1 660.5,-190.1"/>
</g>
<!-- 1@590 &#45; HotspotNodeType.LOOP &#160;0.0s -->
<g id="node45" class="node">
<title>1@590 &#45; HotspotNodeType.LOOP &#160;0.0s</title>
<ellipse fill="orange" stroke="black" cx="657" cy="-90" rx="191.17" ry="18"/>
<text text-anchor="middle" x="657" y="-86.3" font-family="Times,serif" font-size="14.00">1@590 &#45; HotspotNodeType.LOOP &#160;0.0s</text>
</g>
<!-- 1@559 &#45; HotspotNodeType.LOOP &#160;0.0s&#45;&gt;1@590 &#45; HotspotNodeType.LOOP &#160;0.0s -->
<g id="edge47" class="edge">
<title>1@559 &#45; HotspotNodeType.LOOP &#160;0.0s&#45;&gt;1@590 &#45; HotspotNodeType.LOOP &#160;0.0s</title>
<path fill="none" stroke="black" d="M657,-143.7C657,-135.98 657,-126.71 657,-118.11"/>
<polygon fill="black" stroke="black" points="660.5,-118.1 657,-108.1 653.5,-118.1 660.5,-118.1"/>
</g>
<!-- 1@252 &#45; HotspotNodeType.LOOP &#160;0.0s -->
<g id="node46" class="node">
<title>1@252 &#45; HotspotNodeType.LOOP &#160;0.0s</title>
<ellipse fill="orange" stroke="black" cx="657" cy="-18" rx="191.17" ry="18"/>
<text text-anchor="middle" x="657" y="-14.3" font-family="Times,serif" font-size="14.00">1@252 &#45; HotspotNodeType.LOOP &#160;0.0s</text>
</g>
<!-- 1@590 &#45; HotspotNodeType.LOOP &#160;0.0s&#45;&gt;1@252 &#45; HotspotNodeType.LOOP &#160;0.0s -->
<g id="edge48" class="edge">
<title>1@590 &#45; HotspotNodeType.LOOP &#160;0.0s&#45;&gt;1@252 &#45; HotspotNodeType.LOOP &#160;0.0s</title>
<path fill="none" stroke="black" d="M657,-71.7C657,-63.98 657,-54.71 657,-46.11"/>
<polygon fill="black" stroke="black" points="660.5,-46.1 657,-36.1 653.5,-46.1 660.5,-46.1"/>
</g>
</g>
</svg>
