<?xml version="1.0" encoding="UTF-8" standalone="no"?>
<!DOCTYPE svg PUBLIC "-//W3C//DTD SVG 1.1//EN"
 "http://www.w3.org/Graphics/SVG/1.1/DTD/svg11.dtd">
<!-- Generated by graphviz version 2.43.0 (0)
 -->
<!-- Title: %3 Pages: 1 -->
<svg width="578pt" height="574pt"
 viewBox="0.00 0.00 578.00 574.00" xmlns="http://www.w3.org/2000/svg" xmlns:xlink="http://www.w3.org/1999/xlink">
<g id="graph0" class="graph" transform="scale(1 1) rotate(0) translate(4 570)">
<title>%3</title>
<polygon fill="white" stroke="transparent" points="-4,4 -4,-570 574,-570 574,4 -4,4"/>
<!-- /home/lukas/git/benchmark_harness/auto_tuner_benchmarks/NPB/EP/EP_orig\n13.919s -->
<g id="node1" class="node">
<title>/home/lukas/git/benchmark_harness/auto_tuner_benchmarks/NPB/EP/EP_orig\n13.919s</title>
<polygon fill="green" stroke="black" points="570,-566 0,-566 0,-528 570,-528 570,-566"/>
<text text-anchor="middle" x="285" y="-550.8" font-family="Times,serif" font-size="14.00">/home/lukas/git/benchmark_harness/auto_tuner_benchmarks/NPB/EP/EP_orig</text>
<text text-anchor="middle" x="285" y="-535.8" font-family="Times,serif" font-size="14.00">13.919s</text>
</g>
<!-- 1@175 &#45; HotspotNodeType.LOOP &#160;0.017s -->
<g id="node2" class="node">
<title>1@175 &#45; HotspotNodeType.LOOP &#160;0.017s</title>
<ellipse fill="white" stroke="black" cx="285" cy="-474" rx="202.56" ry="18"/>
<text text-anchor="middle" x="285" y="-470.3" font-family="Times,serif" font-size="14.00">1@175 &#45; HotspotNodeType.LOOP &#160;0.017s</text>
</g>
<!-- /home/lukas/git/benchmark_harness/auto_tuner_benchmarks/NPB/EP/EP_orig\n13.919s&#45;&gt;1@175 &#45; HotspotNodeType.LOOP &#160;0.017s -->
<g id="edge1" class="edge">
<title>/home/lukas/git/benchmark_harness/auto_tuner_benchmarks/NPB/EP/EP_orig\n13.919s&#45;&gt;1@175 &#45; HotspotNodeType.LOOP &#160;0.017s</title>
<path fill="none" stroke="black" d="M285,-527.72C285,-519.97 285,-510.79 285,-502.27"/>
<polygon fill="black" stroke="black" points="288.5,-502 285,-492 281.5,-502 288.5,-502"/>
</g>
<!-- step 0\n[]\n/home/lukas/git/benchmark_harness/auto_tuner_benchmarks/NPB/EP/EP_orig\n13.919s -->
<g id="node3" class="node">
<title>step 0\n[]\n/home/lukas/git/benchmark_harness/auto_tuner_benchmarks/NPB/EP/EP_orig\n13.919s</title>
<polygon fill="green" stroke="black" points="570,-420 0,-420 0,-352 570,-352 570,-420"/>
<text text-anchor="middle" x="285" y="-404.8" font-family="Times,serif" font-size="14.00">step 0</text>
<text text-anchor="middle" x="285" y="-389.8" font-family="Times,serif" font-size="14.00">[]</text>
<text text-anchor="middle" x="285" y="-374.8" font-family="Times,serif" font-size="14.00">/home/lukas/git/benchmark_harness/auto_tuner_benchmarks/NPB/EP/EP_orig</text>
<text text-anchor="middle" x="285" y="-359.8" font-family="Times,serif" font-size="14.00">13.919s</text>
</g>
<!-- 1@175 &#45; HotspotNodeType.LOOP &#160;0.017s&#45;&gt;step 0\n[]\n/home/lukas/git/benchmark_harness/auto_tuner_benchmarks/NPB/EP/EP_orig\n13.919s -->
<g id="edge2" class="edge">
<title>1@175 &#45; HotspotNodeType.LOOP &#160;0.017s&#45;&gt;step 0\n[]\n/home/lukas/git/benchmark_harness/auto_tuner_benchmarks/NPB/EP/EP_orig\n13.919s</title>
<path fill="none" stroke="black" d="M285,-455.6C285,-448.18 285,-439.16 285,-430.14"/>
<polygon fill="black" stroke="black" points="288.5,-430.03 285,-420.03 281.5,-430.03 288.5,-430.03"/>
</g>
<!-- 3@155 &#45; HotspotNodeType.LOOP &#160;0.01s -->
<g id="node4" class="node">
<title>3@155 &#45; HotspotNodeType.LOOP &#160;0.01s</title>
<ellipse fill="white" stroke="black" cx="285" cy="-298" rx="196.87" ry="18"/>
<text text-anchor="middle" x="285" y="-294.3" font-family="Times,serif" font-size="14.00">3@155 &#45; HotspotNodeType.LOOP &#160;0.01s</text>
</g>
<!-- step 0\n[]\n/home/lukas/git/benchmark_harness/auto_tuner_benchmarks/NPB/EP/EP_orig\n13.919s&#45;&gt;3@155 &#45; HotspotNodeType.LOOP &#160;0.01s -->
<g id="edge3" class="edge">
<title>step 0\n[]\n/home/lukas/git/benchmark_harness/auto_tuner_benchmarks/NPB/EP/EP_orig\n13.919s&#45;&gt;3@155 &#45; HotspotNodeType.LOOP &#160;0.01s</title>
<path fill="none" stroke="black" d="M285,-352C285,-343.56 285,-334.59 285,-326.47"/>
<polygon fill="black" stroke="black" points="288.5,-326.4 285,-316.4 281.5,-326.4 288.5,-326.4"/>
</g>
<!-- step 1\n[]\n/home/lukas/git/benchmark_harness/auto_tuner_benchmarks/NPB/EP/EP_orig\n13.919s -->
<g id="node5" class="node">
<title>step 1\n[]\n/home/lukas/git/benchmark_harness/auto_tuner_benchmarks/NPB/EP/EP_orig\n13.919s</title>
<polygon fill="green" stroke="black" points="570,-244 0,-244 0,-176 570,-176 570,-244"/>
<text text-anchor="middle" x="285" y="-228.8" font-family="Times,serif" font-size="14.00">step 1</text>
<text text-anchor="middle" x="285" y="-213.8" font-family="Times,serif" font-size="14.00">[]</text>
<text text-anchor="middle" x="285" y="-198.8" font-family="Times,serif" font-size="14.00">/home/lukas/git/benchmark_harness/auto_tuner_benchmarks/NPB/EP/EP_orig</text>
<text text-anchor="middle" x="285" y="-183.8" font-family="Times,serif" font-size="14.00">13.919s</text>
</g>
<!-- 3@155 &#45; HotspotNodeType.LOOP &#160;0.01s&#45;&gt;step 1\n[]\n/home/lukas/git/benchmark_harness/auto_tuner_benchmarks/NPB/EP/EP_orig\n13.919s -->
<g id="edge4" class="edge">
<title>3@155 &#45; HotspotNodeType.LOOP &#160;0.01s&#45;&gt;step 1\n[]\n/home/lukas/git/benchmark_harness/auto_tuner_benchmarks/NPB/EP/EP_orig\n13.919s</title>
<path fill="none" stroke="black" d="M285,-279.6C285,-272.18 285,-263.16 285,-254.14"/>
<polygon fill="black" stroke="black" points="288.5,-254.03 285,-244.03 281.5,-254.03 288.5,-254.03"/>
</g>
<!-- 1@202 &#45; HotspotNodeType.LOOP &#160;0.007s -->
<g id="node6" class="node">
<title>1@202 &#45; HotspotNodeType.LOOP &#160;0.007s</title>
<ellipse fill="white" stroke="black" cx="285" cy="-122" rx="202.56" ry="18"/>
<text text-anchor="middle" x="285" y="-118.3" font-family="Times,serif" font-size="14.00">1@202 &#45; HotspotNodeType.LOOP &#160;0.007s</text>
</g>
<!-- step 1\n[]\n/home/lukas/git/benchmark_harness/auto_tuner_benchmarks/NPB/EP/EP_orig\n13.919s&#45;&gt;1@202 &#45; HotspotNodeType.LOOP &#160;0.007s -->
<g id="edge5" class="edge">
<title>step 1\n[]\n/home/lukas/git/benchmark_harness/auto_tuner_benchmarks/NPB/EP/EP_orig\n13.919s&#45;&gt;1@202 &#45; HotspotNodeType.LOOP &#160;0.007s</title>
<path fill="none" stroke="black" d="M285,-176C285,-167.56 285,-158.59 285,-150.47"/>
<polygon fill="black" stroke="black" points="288.5,-150.4 285,-140.4 281.5,-150.4 288.5,-150.4"/>
</g>
<!-- step 2\n[]\n/home/lukas/git/benchmark_harness/auto_tuner_benchmarks/NPB/EP/EP_orig\n13.919s -->
<g id="node7" class="node">
<title>step 2\n[]\n/home/lukas/git/benchmark_harness/auto_tuner_benchmarks/NPB/EP/EP_orig\n13.919s</title>
<polygon fill="green" stroke="black" points="570,-68 0,-68 0,0 570,0 570,-68"/>
<text text-anchor="middle" x="285" y="-52.8" font-family="Times,serif" font-size="14.00">step 2</text>
<text text-anchor="middle" x="285" y="-37.8" font-family="Times,serif" font-size="14.00">[]</text>
<text text-anchor="middle" x="285" y="-22.8" font-family="Times,serif" font-size="14.00">/home/lukas/git/benchmark_harness/auto_tuner_benchmarks/NPB/EP/EP_orig</text>
<text text-anchor="middle" x="285" y="-7.8" font-family="Times,serif" font-size="14.00">13.919s</text>
</g>
<!-- 1@202 &#45; HotspotNodeType.LOOP &#160;0.007s&#45;&gt;step 2\n[]\n/home/lukas/git/benchmark_harness/auto_tuner_benchmarks/NPB/EP/EP_orig\n13.919s -->
<g id="edge6" class="edge">
<title>1@202 &#45; HotspotNodeType.LOOP &#160;0.007s&#45;&gt;step 2\n[]\n/home/lukas/git/benchmark_harness/auto_tuner_benchmarks/NPB/EP/EP_orig\n13.919s</title>
<path fill="none" stroke="black" d="M285,-103.6C285,-96.18 285,-87.16 285,-78.14"/>
<polygon fill="black" stroke="black" points="288.5,-78.03 285,-68.03 281.5,-78.03 288.5,-78.03"/>
</g>
</g>
</svg>
