<?xml version="1.0" encoding="UTF-8" standalone="no"?>
<!DOCTYPE svg PUBLIC "-//W3C//DTD SVG 1.1//EN"
 "http://www.w3.org/Graphics/SVG/1.1/DTD/svg11.dtd">
<!-- Generated by graphviz version 2.43.0 (0)
 -->
<!-- Title: %3 Pages: 1 -->
<svg width="1270pt" height="750pt"
 viewBox="0.00 0.00 1270.00 750.00" xmlns="http://www.w3.org/2000/svg" xmlns:xlink="http://www.w3.org/1999/xlink">
<g id="graph0" class="graph" transform="scale(1 1) rotate(0) translate(4 746)">
<title>%3</title>
<polygon fill="white" stroke="transparent" points="-4,4 -4,-746 1266,-746 1266,4 -4,4"/>
<!-- /home/lukas/git/benchmark_harness/auto_tuner_benchmarks/NPB/EP/EP_orig\n13.919s -->
<g id="node1" class="node">
<title>/home/lukas/git/benchmark_harness/auto_tuner_benchmarks/NPB/EP/EP_orig\n13.919s</title>
<polygon fill="green" stroke="black" points="942,-742 372,-742 372,-704 942,-704 942,-742"/>
<text text-anchor="middle" x="657" y="-726.8" font-family="Times,serif" font-size="14.00">/home/lukas/git/benchmark_harness/auto_tuner_benchmarks/NPB/EP/EP_orig</text>
<text text-anchor="middle" x="657" y="-711.8" font-family="Times,serif" font-size="14.00">13.919s</text>
</g>
<!-- 1@175 &#45; HotspotNodeType.LOOP &#160;0.017s -->
<g id="node2" class="node">
<title>1@175 &#45; HotspotNodeType.LOOP &#160;0.017s</title>
<ellipse fill="white" stroke="black" cx="657" cy="-650" rx="202.56" ry="18"/>
<text text-anchor="middle" x="657" y="-646.3" font-family="Times,serif" font-size="14.00">1@175 &#45; HotspotNodeType.LOOP &#160;0.017s</text>
</g>
<!-- /home/lukas/git/benchmark_harness/auto_tuner_benchmarks/NPB/EP/EP_orig\n13.919s&#45;&gt;1@175 &#45; HotspotNodeType.LOOP &#160;0.017s -->
<g id="edge1" class="edge">
<title>/home/lukas/git/benchmark_harness/auto_tuner_benchmarks/NPB/EP/EP_orig\n13.919s&#45;&gt;1@175 &#45; HotspotNodeType.LOOP &#160;0.017s</title>
<path fill="none" stroke="black" d="M657,-703.72C657,-695.97 657,-686.79 657,-678.27"/>
<polygon fill="black" stroke="black" points="660.5,-678 657,-668 653.5,-678 660.5,-678"/>
</g>
<!-- step 0\n[]\n/home/lukas/git/benchmark_harness/auto_tuner_benchmarks/NPB/EP/EP_orig\n13.919s -->
<g id="node3" class="node">
<title>step 0\n[]\n/home/lukas/git/benchmark_harness/auto_tuner_benchmarks/NPB/EP/EP_orig\n13.919s</title>
<polygon fill="green" stroke="black" points="942,-596 372,-596 372,-528 942,-528 942,-596"/>
<text text-anchor="middle" x="657" y="-580.8" font-family="Times,serif" font-size="14.00">step 0</text>
<text text-anchor="middle" x="657" y="-565.8" font-family="Times,serif" font-size="14.00">[]</text>
<text text-anchor="middle" x="657" y="-550.8" font-family="Times,serif" font-size="14.00">/home/lukas/git/benchmark_harness/auto_tuner_benchmarks/NPB/EP/EP_orig</text>
<text text-anchor="middle" x="657" y="-535.8" font-family="Times,serif" font-size="14.00">13.919s</text>
</g>
<!-- 1@175 &#45; HotspotNodeType.LOOP &#160;0.017s&#45;&gt;step 0\n[]\n/home/lukas/git/benchmark_harness/auto_tuner_benchmarks/NPB/EP/EP_orig\n13.919s -->
<g id="edge2" class="edge">
<title>1@175 &#45; HotspotNodeType.LOOP &#160;0.017s&#45;&gt;step 0\n[]\n/home/lukas/git/benchmark_harness/auto_tuner_benchmarks/NPB/EP/EP_orig\n13.919s</title>
<path fill="none" stroke="black" d="M657,-631.6C657,-624.18 657,-615.16 657,-606.14"/>
<polygon fill="black" stroke="black" points="660.5,-606.03 657,-596.03 653.5,-606.03 660.5,-606.03"/>
</g>
<!-- 3@155 &#45; HotspotNodeType.LOOP &#160;0.01s -->
<g id="node4" class="node">
<title>3@155 &#45; HotspotNodeType.LOOP &#160;0.01s</title>
<ellipse fill="white" stroke="black" cx="657" cy="-474" rx="196.87" ry="18"/>
<text text-anchor="middle" x="657" y="-470.3" font-family="Times,serif" font-size="14.00">3@155 &#45; HotspotNodeType.LOOP &#160;0.01s</text>
</g>
<!-- step 0\n[]\n/home/lukas/git/benchmark_harness/auto_tuner_benchmarks/NPB/EP/EP_orig\n13.919s&#45;&gt;3@155 &#45; HotspotNodeType.LOOP &#160;0.01s -->
<g id="edge3" class="edge">
<title>step 0\n[]\n/home/lukas/git/benchmark_harness/auto_tuner_benchmarks/NPB/EP/EP_orig\n13.919s&#45;&gt;3@155 &#45; HotspotNodeType.LOOP &#160;0.01s</title>
<path fill="none" stroke="black" d="M657,-528C657,-519.56 657,-510.59 657,-502.47"/>
<polygon fill="black" stroke="black" points="660.5,-502.4 657,-492.4 653.5,-502.4 660.5,-502.4"/>
</g>
<!-- step 1\n[]\n/home/lukas/git/benchmark_harness/auto_tuner_benchmarks/NPB/EP/EP_orig\n13.919s -->
<g id="node5" class="node">
<title>step 1\n[]\n/home/lukas/git/benchmark_harness/auto_tuner_benchmarks/NPB/EP/EP_orig\n13.919s</title>
<polygon fill="green" stroke="black" points="942,-420 372,-420 372,-352 942,-352 942,-420"/>
<text text-anchor="middle" x="657" y="-404.8" font-family="Times,serif" font-size="14.00">step 1</text>
<text text-anchor="middle" x="657" y="-389.8" font-family="Times,serif" font-size="14.00">[]</text>
<text text-anchor="middle" x="657" y="-374.8" font-family="Times,serif" font-size="14.00">/home/lukas/git/benchmark_harness/auto_tuner_benchmarks/NPB/EP/EP_orig</text>
<text text-anchor="middle" x="657" y="-359.8" font-family="Times,serif" font-size="14.00">13.919s</text>
</g>
<!-- 3@155 &#45; HotspotNodeType.LOOP &#160;0.01s&#45;&gt;step 1\n[]\n/home/lukas/git/benchmark_harness/auto_tuner_benchmarks/NPB/EP/EP_orig\n13.919s -->
<g id="edge4" class="edge">
<title>3@155 &#45; HotspotNodeType.LOOP &#160;0.01s&#45;&gt;step 1\n[]\n/home/lukas/git/benchmark_harness/auto_tuner_benchmarks/NPB/EP/EP_orig\n13.919s</title>
<path fill="none" stroke="black" d="M657,-455.6C657,-448.18 657,-439.16 657,-430.14"/>
<polygon fill="black" stroke="black" points="660.5,-430.03 657,-420.03 653.5,-430.03 660.5,-430.03"/>
</g>
<!-- 1@202 &#45; HotspotNodeType.LOOP &#160;0.007s -->
<g id="node6" class="node">
<title>1@202 &#45; HotspotNodeType.LOOP &#160;0.007s</title>
<ellipse fill="white" stroke="black" cx="657" cy="-298" rx="202.56" ry="18"/>
<text text-anchor="middle" x="657" y="-294.3" font-family="Times,serif" font-size="14.00">1@202 &#45; HotspotNodeType.LOOP &#160;0.007s</text>
</g>
<!-- step 1\n[]\n/home/lukas/git/benchmark_harness/auto_tuner_benchmarks/NPB/EP/EP_orig\n13.919s&#45;&gt;1@202 &#45; HotspotNodeType.LOOP &#160;0.007s -->
<g id="edge5" class="edge">
<title>step 1\n[]\n/home/lukas/git/benchmark_harness/auto_tuner_benchmarks/NPB/EP/EP_orig\n13.919s&#45;&gt;1@202 &#45; HotspotNodeType.LOOP &#160;0.007s</title>
<path fill="none" stroke="black" d="M657,-352C657,-343.56 657,-334.59 657,-326.47"/>
<polygon fill="black" stroke="black" points="660.5,-326.4 657,-316.4 653.5,-326.4 660.5,-326.4"/>
</g>
<!-- step 2\n[]\n/home/lukas/git/benchmark_harness/auto_tuner_benchmarks/NPB/EP/EP_orig\n13.919s -->
<g id="node7" class="node">
<title>step 2\n[]\n/home/lukas/git/benchmark_harness/auto_tuner_benchmarks/NPB/EP/EP_orig\n13.919s</title>
<polygon fill="green" stroke="black" points="942,-244 372,-244 372,-176 942,-176 942,-244"/>
<text text-anchor="middle" x="657" y="-228.8" font-family="Times,serif" font-size="14.00">step 2</text>
<text text-anchor="middle" x="657" y="-213.8" font-family="Times,serif" font-size="14.00">[]</text>
<text text-anchor="middle" x="657" y="-198.8" font-family="Times,serif" font-size="14.00">/home/lukas/git/benchmark_harness/auto_tuner_benchmarks/NPB/EP/EP_orig</text>
<text text-anchor="middle" x="657" y="-183.8" font-family="Times,serif" font-size="14.00">13.919s</text>
</g>
<!-- 1@202 &#45; HotspotNodeType.LOOP &#160;0.007s&#45;&gt;step 2\n[]\n/home/lukas/git/benchmark_harness/auto_tuner_benchmarks/NPB/EP/EP_orig\n13.919s -->
<g id="edge6" class="edge">
<title>1@202 &#45; HotspotNodeType.LOOP &#160;0.007s&#45;&gt;step 2\n[]\n/home/lukas/git/benchmark_harness/auto_tuner_benchmarks/NPB/EP/EP_orig\n13.919s</title>
<path fill="none" stroke="black" d="M657,-279.6C657,-272.18 657,-263.16 657,-254.14"/>
<polygon fill="black" stroke="black" points="660.5,-254.03 657,-244.03 653.5,-254.03 660.5,-254.03"/>
</g>
<!-- 1@139 &#45; HotspotNodeType.LOOP &#160;0.001s -->
<g id="node8" class="node">
<title>1@139 &#45; HotspotNodeType.LOOP &#160;0.001s</title>
<ellipse fill="white" stroke="black" cx="657" cy="-122" rx="202.56" ry="18"/>
<text text-anchor="middle" x="657" y="-118.3" font-family="Times,serif" font-size="14.00">1@139 &#45; HotspotNodeType.LOOP &#160;0.001s</text>
</g>
<!-- step 2\n[]\n/home/lukas/git/benchmark_harness/auto_tuner_benchmarks/NPB/EP/EP_orig\n13.919s&#45;&gt;1@139 &#45; HotspotNodeType.LOOP &#160;0.001s -->
<g id="edge7" class="edge">
<title>step 2\n[]\n/home/lukas/git/benchmark_harness/auto_tuner_benchmarks/NPB/EP/EP_orig\n13.919s&#45;&gt;1@139 &#45; HotspotNodeType.LOOP &#160;0.001s</title>
<path fill="none" stroke="black" d="M657,-176C657,-167.56 657,-158.59 657,-150.47"/>
<polygon fill="black" stroke="black" points="660.5,-150.4 657,-140.4 653.5,-150.4 660.5,-150.4"/>
</g>
<!-- step 3\n[1]\n/home/lukas/git/benchmark_harness/auto_tuner_benchmarks/NPB/EP/EP_orig_dpautotune_2\n14.113s -->
<g id="node9" class="node">
<title>step 3\n[1]\n/home/lukas/git/benchmark_harness/auto_tuner_benchmarks/NPB/EP/EP_orig_dpautotune_2\n14.113s</title>
<polygon fill="green" stroke="black" points="674,-68 0,-68 0,0 674,0 674,-68"/>
<text text-anchor="middle" x="337" y="-52.8" font-family="Times,serif" font-size="14.00">step 3</text>
<text text-anchor="middle" x="337" y="-37.8" font-family="Times,serif" font-size="14.00">[1]</text>
<text text-anchor="middle" x="337" y="-22.8" font-family="Times,serif" font-size="14.00">/home/lukas/git/benchmark_harness/auto_tuner_benchmarks/NPB/EP/EP_orig_dpautotune_2</text>
<text text-anchor="middle" x="337" y="-7.8" font-family="Times,serif" font-size="14.00">14.113s</text>
</g>
<!-- 1@139 &#45; HotspotNodeType.LOOP &#160;0.001s&#45;&gt;step 3\n[1]\n/home/lukas/git/benchmark_harness/auto_tuner_benchmarks/NPB/EP/EP_orig_dpautotune_2\n14.113s -->
<g id="edge8" class="edge">
<title>1@139 &#45; HotspotNodeType.LOOP &#160;0.001s&#45;&gt;step 3\n[1]\n/home/lukas/git/benchmark_harness/auto_tuner_benchmarks/NPB/EP/EP_orig_dpautotune_2\n14.113s</title>
<path fill="none" stroke="black" d="M596.43,-104.72C560.64,-95.1 513.84,-82.53 469.86,-70.71"/>
<polygon fill="black" stroke="black" points="470.5,-67.25 459.94,-68.04 468.68,-74.01 470.5,-67.25"/>
</g>
<!-- step 3\n[]\n/home/lukas/git/benchmark_harness/auto_tuner_benchmarks/NPB/EP/EP_orig\n13.919s -->
<g id="node10" class="node">
<title>step 3\n[]\n/home/lukas/git/benchmark_harness/auto_tuner_benchmarks/NPB/EP/EP_orig\n13.919s</title>
<polygon fill="green" stroke="black" points="1262,-68 692,-68 692,0 1262,0 1262,-68"/>
<text text-anchor="middle" x="977" y="-52.8" font-family="Times,serif" font-size="14.00">step 3</text>
<text text-anchor="middle" x="977" y="-37.8" font-family="Times,serif" font-size="14.00">[]</text>
<text text-anchor="middle" x="977" y="-22.8" font-family="Times,serif" font-size="14.00">/home/lukas/git/benchmark_harness/auto_tuner_benchmarks/NPB/EP/EP_orig</text>
<text text-anchor="middle" x="977" y="-7.8" font-family="Times,serif" font-size="14.00">13.919s</text>
</g>
<!-- 1@139 &#45; HotspotNodeType.LOOP &#160;0.001s&#45;&gt;step 3\n[]\n/home/lukas/git/benchmark_harness/auto_tuner_benchmarks/NPB/EP/EP_orig\n13.919s -->
<g id="edge9" class="edge">
<title>1@139 &#45; HotspotNodeType.LOOP &#160;0.001s&#45;&gt;step 3\n[]\n/home/lukas/git/benchmark_harness/auto_tuner_benchmarks/NPB/EP/EP_orig\n13.919s</title>
<path fill="none" stroke="black" d="M717.57,-104.72C753.36,-95.1 800.16,-82.53 844.14,-70.71"/>
<polygon fill="black" stroke="black" points="845.32,-74.01 854.06,-68.04 843.5,-67.25 845.32,-74.01"/>
</g>
</g>
</svg>
